M48
; DRILL file KiCad 10.0.7 date 2026-10-09T12:39:55
; FORMAT={-:-/ absolute / metric / decimal}
; #@! TF.CreationDate,2026-10-09T12:39:55+08:00
; #@! TF.GenerationSoftware,Kicad,Pcbnew,10.0.7
; #@! TF.FileFunction,MixedPlating,1,6
FMAT,2
METRIC
; #@! TA.AperFunction,Plated,PTH,ViaDrill
T1C0.300
; #@! TA.AperFunction,Plated,PTH,ViaDrill
T2C0.500
; #@! TA.AperFunction,Plated,PTH,ComponentDrill
T3C0.800
; #@! TA.AperFunction,Plated,PTH,ComponentDrill
T4C1.000
; #@! TA.AperFunction,Plated,PTH,ComponentDrill
T5C1.100
; #@! TA.AperFunction,Plated,PTH,ComponentDrill
T6C1.200
; #@! TA.AperFunction,Plated,PTH,ComponentDrill
T7C1.850
; #@! TA.AperFunction,Plated,PTH,ComponentDrill
T8C3.000
; #@! TA.AperFunction,Plated,PTH,ComponentDrill
T9C6.500
; #@! TA.AperFunction,NonPlated,NPTH,ComponentDrill
T10C3.200
%
G90
G05
T1
X28.0Y-139.75
X28.0Y-145.25
X28.75Y-102.0
X28.75Y-148.0
X29.5Y-138.5
X30.0Y-141.0
X30.0Y-142.25
X30.0Y-143.75
X30.0Y-145.0
X33.35Y-142.35
X33.35Y-143.65
X33.5Y-138.5
X34.0Y-143.0
X34.25Y-148.0
X34.5Y-136.0
X34.5Y-138.5
X34.5Y-147.0
X34.5Y-152.5
X34.65Y-142.35
X34.65Y-143.65
X35.5Y-150.0
X37.75Y-138.0
X38.0Y-141.0
X38.0Y-142.25
X38.0Y-143.75
X38.0Y-145.0
X38.5Y-136.0
X38.5Y-138.5
X38.5Y-147.5
X38.5Y-152.5
X39.5Y-150.0
X40.0Y-146.0
X42.5Y-138.0
X46.75Y-115.0
X52.75Y-102.0
X52.75Y-183.0
X53.75Y-150.5
X54.0Y-143.75
X54.0Y-146.0
X55.25Y-115.0
X56.0Y-143.25
X56.0Y-148.75
X59.25Y-150.5
X59.5Y-144.5
X59.5Y-148.5
X74.5Y-143.5
X77.25Y-147.0
X78.0Y-139.5
X78.0Y-150.5
X78.5Y-142.0
X78.5Y-143.0
X78.5Y-144.0
X78.75Y-15.0
X80.25Y-147.0
X81.25Y-78.0
X81.75Y-183.0
X82.0Y-139.5
X82.0Y-149.5
X82.0Y-150.5
X82.75Y-147.0
X83.5Y-142.0
X83.5Y-143.0
X83.5Y-144.0
X84.0Y-145.0
X84.0Y-149.0
X84.75Y-150.5
X85.0Y-141.0
X85.0Y-145.0
X86.0Y-139.5
X86.0Y-150.5
X86.75Y-146.0
X89.25Y-15.0
X89.75Y-115.0
X98.25Y-115.0
X99.25Y-146.0
X101.0Y-143.25
X101.0Y-148.75
X105.0Y-143.25
X105.0Y-148.75
X106.25Y-31.0
X106.25Y-71.0
X107.5Y-48.0
X107.5Y-61.0
X108.25Y-78.0
X109.0Y-47.0
X111.75Y-31.0
X111.75Y-71.0
X113.25Y-31.0
X113.25Y-71.0
X113.75Y-78.0
X114.5Y-47.0
X115.0Y-45.5
X115.25Y-146.5
X117.0Y-47.0
X117.0Y-140.5
X117.0Y-144.5
X118.0Y-47.0
X118.25Y-78.0
X118.5Y-140.5
X118.5Y-148.5
X118.5Y-152.5
X118.75Y-31.0
X118.75Y-71.0
X119.0Y-45.0
X119.0Y-46.25
X119.0Y-50.0
X119.5Y-136.5
X119.5Y-140.5
X119.5Y-144.5
X120.0Y-54.0
X120.0Y-133.5
X120.25Y-31.0
X120.25Y-71.0
X120.5Y-48.5
X120.75Y-140.75
X120.75Y-142.0
X120.75Y-144.0
X120.75Y-145.0
X120.75Y-146.25
X120.75Y-147.5
X121.0Y-148.5
X121.0Y-152.5
X121.5Y-51.75
X121.5Y-98.75
X121.5Y-101.75
X121.5Y-103.5
X121.5Y-136.0
X122.25Y-90.75
X122.25Y-99.25
X122.25Y-138.0
X122.25Y-148.0
X122.35Y-47.45
X122.35Y-48.75
X122.5Y-87.5
X122.75Y-90.0
X122.75Y-92.0
X122.75Y-100.0
X122.75Y-102.0
X123.0Y-48.0
X123.0Y-155.25
X123.5Y-148.0
X123.65Y-47.45
X123.65Y-48.75
X123.75Y-78.0
X123.75Y-183.0
X124.0Y-133.5
X124.25Y-150.5
X124.35Y-141.05
X124.35Y-142.35
X124.35Y-143.65
X124.35Y-144.95
X124.5Y-98.5
X125.0Y-50.0
X125.0Y-143.0
X125.5Y-135.0
X125.5Y-136.0
X125.65Y-141.05
X125.65Y-142.35
X125.65Y-143.65
X125.65Y-144.95
X125.75Y-31.0
X125.75Y-71.0
X126.0Y-94.5
X126.5Y-87.5
X126.5Y-134.75
X126.5Y-139.5
X127.0Y-46.5
X127.0Y-47.5
X127.0Y-48.75
X127.0Y-50.0
X127.0Y-60.0
X127.0Y-64.0
X127.25Y-31.0
X127.25Y-71.0
X127.75Y-138.0
X127.75Y-148.0
X128.0Y-130.0
X128.0Y-134.0
X128.0Y-152.5
X128.0Y-157.5
X128.5Y-148.5
X129.25Y-89.5
X129.25Y-90.75
X129.25Y-92.0
X129.25Y-99.5
X129.25Y-100.75
X129.25Y-102.0
X129.25Y-140.25
X129.25Y-141.5
X129.25Y-142.75
X129.25Y-145.25
X129.5Y-133.5
X129.5Y-136.0
X129.75Y-183.0
X130.0Y-43.5
X130.0Y-94.5
X130.25Y-62.0
X130.25Y-71.0
X130.5Y-88.5
X130.5Y-90.75
X130.5Y-92.5
X130.5Y-98.5
X130.5Y-100.75
X130.5Y-102.5
X130.5Y-145.5
X130.5Y-149.5
X131.0Y-47.5
X131.0Y-50.0
X131.5Y-92.5
X131.5Y-96.5
X132.5Y-140.0
X132.75Y-31.0
X132.75Y-71.0
X132.75Y-94.0
X133.5Y-88.5
X133.5Y-92.5
X134.0Y-41.0
X135.0Y-47.0
X135.0Y-52.75
X135.0Y-60.0
X135.0Y-92.0
X135.0Y-94.25
X136.0Y-86.5
X136.0Y-90.5
X137.0Y-48.0
X137.0Y-61.0
X139.0Y-92.0
X139.5Y-133.5
X139.5Y-140.0
X139.5Y-141.5
X139.5Y-142.5
X139.5Y-154.5
X140.5Y-88.0
X140.5Y-89.0
X140.5Y-90.0
X140.5Y-96.0
X140.5Y-97.0
X140.5Y-98.0
X141.0Y-131.0
X141.0Y-135.0
X141.5Y-136.75
X143.5Y-130.0
X143.5Y-142.5
X144.5Y-130.0
X144.5Y-131.0
X144.5Y-132.0
X145.5Y-88.0
X145.5Y-90.0
X145.5Y-96.0
X145.5Y-98.0
X146.0Y-134.5
X149.5Y-130.0
X149.5Y-131.0
X149.5Y-132.0
X149.75Y-133.0
X150.0Y-134.5
X151.0Y-129.0
X151.0Y-133.0
X154.75Y-196.0
X161.5Y-167.5
X161.5Y-171.5
X161.5Y-176.5
X161.5Y-180.5
X161.75Y-183.0
X162.5Y-171.5
X162.5Y-175.5
X163.0Y-167.0
X163.0Y-170.0
X163.0Y-177.0
X163.0Y-180.0
X165.5Y-161.5
X165.5Y-165.5
X165.5Y-171.5
X165.5Y-175.5
X166.25Y-91.25
X166.75Y-184.5
X167.0Y-163.25
X167.0Y-164.25
X167.0Y-165.25
X167.0Y-166.25
X167.0Y-167.5
X167.0Y-169.25
X167.0Y-170.5
X167.0Y-172.25
X167.0Y-173.25
X167.0Y-176.25
X167.0Y-177.25
X167.0Y-178.25
X167.0Y-179.25
X167.0Y-180.25
X167.0Y-181.25
X167.0Y-182.25
X167.0Y-183.25
X167.75Y-178.0
X167.75Y-180.0
X168.0Y-184.5
X168.0Y-188.5
X169.0Y-189.75
X169.75Y-103.25
X169.75Y-162.75
X169.75Y-163.75
X169.75Y-164.75
X169.75Y-165.75
X169.75Y-168.75
X169.75Y-172.75
X169.75Y-176.75
X169.75Y-177.75
X169.75Y-178.75
X169.75Y-179.75
X169.75Y-180.75
X169.75Y-181.75
X169.75Y-182.75
X169.75Y-183.75
X170.25Y-187.0
X170.5Y-155.25
X170.5Y-157.5
X170.5Y-164.75
X170.75Y-184.25
X171.0Y-154.5
X171.25Y-161.75
X171.25Y-187.0
X171.75Y-159.0
X171.75Y-184.25
X172.0Y-188.5
X172.25Y-161.75
X172.25Y-187.0
X172.75Y-159.0
X172.75Y-184.25
X173.25Y-161.75
X173.25Y-187.0
X173.5Y-186.25
X173.5Y-191.0
X173.75Y-159.0
X173.75Y-184.25
X174.0Y-163.75
X174.25Y-187.0
X174.5Y-156.5
X174.5Y-157.5
X174.75Y-159.0
X174.75Y-184.25
X175.0Y-154.5
X175.0Y-188.5
X175.0Y-191.5
X175.25Y-161.75
X175.25Y-187.0
X175.75Y-184.25
X176.25Y-157.5
X176.25Y-187.0
X176.75Y-184.25
X177.25Y-187.0
X177.75Y-184.25
X178.25Y-161.75
X178.25Y-187.0
X178.5Y-156.5
X178.5Y-157.5
X178.75Y-159.0
X179.0Y-188.5
X179.0Y-191.5
X179.5Y-187.0
X180.5Y-187.0
X180.5Y-191.0
X180.75Y-159.0
X181.25Y-161.75
X182.0Y-182.75
X182.5Y-156.5
X182.5Y-157.5
X182.75Y-184.25
X183.0Y-154.5
X183.25Y-187.0
X183.5Y-191.0
X184.0Y-145.0
X184.25Y-181.75
X184.5Y-187.0
X184.75Y-159.0
X185.25Y-161.75
X185.75Y-184.25
X186.25Y-161.75
X186.25Y-187.0
X186.25Y-198.5
X186.5Y-156.5
X186.5Y-157.5
X186.75Y-159.0
X186.75Y-184.25
X187.0Y-154.5
X187.25Y-187.0
X187.5Y-188.5
X187.75Y-159.0
X187.75Y-184.25
X188.25Y-161.75
X188.75Y-159.0
X189.25Y-187.0
X189.5Y-153.25
X189.75Y-184.25
X190.25Y-187.0
X190.5Y-157.5
X191.25Y-163.25
X191.25Y-182.5
X191.25Y-187.0
X191.5Y-172.0
X191.5Y-188.5
X192.0Y-156.0
X192.25Y-165.25
X192.25Y-168.25
X192.25Y-169.25
X192.25Y-174.25
X192.25Y-175.25
X192.25Y-176.25
X192.25Y-182.25
X192.5Y-186.25
X193.25Y-187.75
X195.0Y-165.75
X195.0Y-167.75
X195.0Y-169.75
X195.0Y-173.75
X195.0Y-174.75
X195.0Y-175.75
X195.0Y-176.75
X195.0Y-177.75
X195.0Y-181.75
X195.5Y-171.5
X195.5Y-179.5
X196.5Y-163.5
X196.5Y-167.5
X196.5Y-171.5
X196.5Y-175.5
X196.5Y-179.5
X196.5Y-181.75
X196.5Y-183.5
X197.5Y-167.5
X197.5Y-175.5
X198.0Y-178.5
X198.0Y-181.5
X198.0Y-184.0
X199.5Y-163.0
X199.5Y-167.0
X199.5Y-171.5
X199.5Y-173.75
X199.5Y-175.5
X200.5Y-187.0
X200.5Y-203.5
X201.0Y-41.75
X201.0Y-45.75
X201.5Y-187.0
X202.0Y-170.0
X202.0Y-174.0
X202.0Y-177.0
X202.0Y-178.5
X202.0Y-179.5
X202.0Y-181.5
X202.0Y-182.5
X202.0Y-184.0
X202.0Y-185.0
X203.5Y-72.0
X203.75Y-41.75
X204.5Y-68.0
X204.5Y-72.0
X204.5Y-76.0
X204.5Y-175.75
X204.5Y-179.5
X204.75Y-184.5
X204.75Y-188.25
X205.0Y-45.75
X205.25Y-68.0
X205.5Y-187.0
X206.0Y-66.0
X206.0Y-67.25
X206.0Y-68.75
X206.0Y-72.5
X206.0Y-78.5
X206.0Y-176.0
X206.0Y-177.0
X206.0Y-178.5
X206.0Y-179.5
X206.0Y-181.0
X206.0Y-182.0
X206.0Y-183.5
X206.0Y-184.5
X206.25Y-206.25
X206.5Y-76.0
X206.5Y-77.0
X206.5Y-167.0
X206.75Y-41.75
X208.25Y-167.0
X208.25Y-179.5
X208.25Y-184.5
X208.5Y-73.75
X209.0Y-187.0
X209.25Y-80.5
X210.0Y-72.5
X210.0Y-170.0
X210.0Y-174.0
X210.0Y-177.0
X210.0Y-179.5
X210.0Y-182.0
X210.0Y-184.5
X210.5Y-71.5
X210.5Y-75.5
X210.5Y-80.0
X210.5Y-81.5
X210.5Y-167.0
X210.75Y-175.0
X210.75Y-185.25
X211.5Y-175.0
X211.5Y-179.0
X211.5Y-181.25
X211.5Y-187.75
X212.25Y-83.5
X212.5Y-76.75
X213.0Y-41.75
X213.0Y-45.75
X213.0Y-123.75
X213.0Y-157.0
X213.25Y-69.0
X213.75Y-83.5
X213.75Y-125.25
X213.75Y-179.0
X214.0Y-66.0
X214.0Y-67.25
X214.0Y-68.75
X214.0Y-70.0
X214.0Y-180.25
X214.5Y-72.5
X214.5Y-74.0
X214.5Y-75.5
X214.5Y-78.5
X214.5Y-128.5
X214.75Y-45.75
X214.75Y-183.0
X215.0Y-119.0
X215.0Y-120.5
X215.0Y-124.5
X215.0Y-126.0
X215.75Y-182.0
X216.5Y-64.0
X216.5Y-70.75
X216.5Y-75.25
X216.5Y-184.5
X217.25Y-187.5
X217.5Y-71.5
X217.5Y-80.75
X217.5Y-104.5
X217.5Y-120.5
X217.5Y-124.5
X217.5Y-199.5
X217.5Y-203.5
X218.0Y-69.5
X218.0Y-110.0
X218.0Y-132.5
X218.5Y-73.0
X218.5Y-77.5
X218.5Y-103.0
X218.5Y-128.5
X218.5Y-130.5
X218.5Y-193.0
X219.0Y-104.5
X219.0Y-108.5
X219.0Y-119.0
X219.0Y-122.75
X219.0Y-124.0
X219.0Y-125.25
X219.0Y-126.5
X220.0Y-104.5
X220.5Y-69.75
X220.5Y-74.25
X220.5Y-119.25
X220.5Y-120.5
X220.5Y-127.5
X220.5Y-128.75
X220.5Y-131.75
X221.25Y-183.0
X221.5Y-104.5
X221.5Y-108.5
X222.0Y-110.0
X222.0Y-112.0
X222.5Y-103.0
X222.5Y-130.5
X223.0Y-103.5
X223.0Y-106.5
X223.0Y-109.5
X223.0Y-208.25
X225.5Y-119.25
X225.5Y-120.5
X225.5Y-127.5
X225.5Y-128.75
X226.0Y-112.0
X227.0Y-103.5
X227.0Y-106.5
X227.0Y-109.5
X227.0Y-122.75
X227.0Y-124.0
X227.0Y-125.25
X227.0Y-156.25
X227.0Y-189.0
X227.0Y-193.0
X247.5Y-136.0
X247.5Y-140.0
X250.0Y-137.0
X250.0Y-141.0
X250.5Y-155.5
X250.5Y-159.5
X251.5Y-152.5
X251.5Y-161.5
X252.0Y-155.0
X252.0Y-156.25
X252.0Y-157.75
X252.0Y-159.0
X253.25Y-139.0
X254.5Y-138.0
X254.5Y-142.0
X255.5Y-152.5
X255.5Y-157.75
X255.5Y-161.5
X256.0Y-151.5
X256.5Y-150.0
X258.5Y-159.0
X260.0Y-152.5
X260.0Y-155.0
X260.0Y-156.25
X260.0Y-157.75
X260.0Y-159.0
X260.5Y-150.0
X261.25Y-152.0
X261.5Y-153.0
X261.5Y-157.0
X262.0Y-151.5
X263.5Y-157.0
X263.5Y-183.0
X264.5Y-153.0
X264.5Y-157.0
X265.75Y-183.0
X266.0Y-151.5
X266.0Y-154.0
X266.0Y-155.5
X267.25Y-159.0
X268.0Y-150.75
X268.5Y-155.5
X268.5Y-159.5
X269.5Y-161.5
X270.0Y-155.0
X270.0Y-156.25
X270.0Y-157.75
X270.0Y-159.0
X273.25Y-159.0
X273.5Y-161.5
X274.5Y-152.5
X276.5Y-140.0
X276.5Y-156.0
X277.25Y-44.5
X277.25Y-183.0
X278.0Y-155.0
X278.0Y-156.25
X278.0Y-157.75
X278.0Y-159.0
X278.5Y-152.5
X279.5Y-155.5
X279.5Y-159.5
T2
X195.0Y-39.5
X195.0Y-41.0
X195.0Y-42.5
X195.0Y-44.0
X195.0Y-45.5
X195.0Y-47.0
X195.0Y-48.5
X195.0Y-50.0
X196.5Y-39.5
X196.5Y-41.0
X196.5Y-42.5
X196.5Y-44.0
X196.5Y-45.5
X196.5Y-47.0
X196.5Y-48.5
X196.5Y-50.0
X198.0Y-39.5
X198.0Y-41.0
X198.0Y-42.5
X198.0Y-44.0
X198.0Y-45.5
X198.0Y-47.0
X198.0Y-48.5
X198.0Y-50.0
X199.5Y-39.5
X199.5Y-41.0
X199.5Y-42.5
X199.5Y-44.0
X199.5Y-45.5
X199.5Y-47.0
X199.5Y-48.5
X199.5Y-50.0
X214.0Y-39.5
X214.0Y-41.0
X214.0Y-42.5
X214.0Y-44.0
X214.0Y-45.5
X214.0Y-47.0
X214.0Y-48.5
X214.0Y-50.0
X215.5Y-39.5
X215.5Y-41.0
X215.5Y-42.5
X215.5Y-44.0
X215.5Y-45.5
X215.5Y-47.0
X215.5Y-48.5
X215.5Y-50.0
X217.0Y-39.5
X217.0Y-41.0
X217.0Y-42.5
X217.0Y-44.0
X217.0Y-45.5
X217.0Y-47.0
X217.0Y-48.5
X217.0Y-50.0
X218.5Y-39.5
X218.5Y-41.0
X218.5Y-42.5
X218.5Y-44.0
X218.5Y-45.5
X218.5Y-47.0
X218.5Y-48.5
X218.5Y-50.0
T3
X102.0Y-152.5
X104.5Y-152.5
T4
X151.0Y-145.0
X151.0Y-147.54
X221.0Y-191.0
X221.0Y-193.54
X221.0Y-196.08
X221.0Y-198.62
X221.0Y-201.16
X221.0Y-203.7
X221.0Y-206.24
X223.54Y-191.0
X223.54Y-193.54
X223.54Y-196.08
X223.54Y-198.62
X223.54Y-201.16
X223.54Y-203.7
X223.54Y-206.24
X240.0Y-206.0
X240.0Y-208.54
X240.0Y-211.08
X270.0Y-206.0
X270.0Y-208.54
X270.0Y-211.08
X275.0Y-140.0
X275.0Y-142.54
T5
X112.0Y-42.0
X112.0Y-55.0
X114.54Y-42.0
X114.54Y-55.0
X117.08Y-42.0
X117.08Y-55.0
X126.0Y-42.0
X126.0Y-55.0
X128.54Y-42.0
X128.54Y-55.0
X131.08Y-42.0
X131.08Y-55.0
T6
X30.0Y-39.0
X30.0Y-60.0
X30.0Y-81.0
X30.0Y-102.0
X37.5Y-39.0
X37.5Y-60.0
X37.5Y-81.0
X37.5Y-102.0
X51.0Y-39.0
X51.0Y-60.0
X51.0Y-81.0
X51.0Y-102.0
X58.5Y-39.0
X58.5Y-60.0
X58.5Y-81.0
X58.5Y-102.0
X72.0Y-39.0
X72.0Y-60.0
X72.0Y-81.0
X79.5Y-39.0
X79.5Y-60.0
X79.5Y-81.0
X93.0Y-39.0
X93.0Y-60.0
X93.0Y-81.0
X100.5Y-39.0
X100.5Y-60.0
X100.5Y-81.0
X237.0Y-32.0
X237.0Y-57.0
X244.5Y-32.0
X244.5Y-57.0
X260.0Y-32.0
X260.0Y-57.0
X267.5Y-32.0
X267.5Y-57.0
T7
X7.565Y-99.565
X7.565Y-104.0
X7.565Y-108.435
X10.565Y-10.565
X10.565Y-15.0
X10.565Y-19.435
X12.0Y-99.565
X12.0Y-104.0
X12.0Y-108.435
X15.0Y-10.565
X15.0Y-15.0
X15.0Y-19.435
X16.435Y-99.565
X16.435Y-104.0
X16.435Y-108.435
X19.435Y-10.565
X19.435Y-15.0
X19.435Y-19.435
X275.565Y-35.565
X275.565Y-40.0
X275.565Y-44.435
X275.565Y-85.565
X275.565Y-90.0
X275.565Y-94.435
X280.0Y-35.565
X280.0Y-40.0
X280.0Y-44.435
X280.0Y-85.565
X280.0Y-90.0
X280.0Y-94.435
X284.435Y-35.565
X284.435Y-40.0
X284.435Y-44.435
X284.435Y-85.565
X284.435Y-90.0
X284.435Y-94.435
T9
X40.0Y-15.0
X70.0Y-15.0
T10
X4.0Y-4.0
X5.0Y-215.0
X136.0Y-24.0
X150.0Y-215.0
X165.0Y-76.0
X193.0Y-24.0
X295.0Y-5.0
X295.0Y-215.0
T8
X145.995Y-45.0G85X151.495Y-45.0
G05
X178.505Y-45.0G85X184.005Y-45.0
G05
M30
