%TF.GenerationSoftware,KiCad,Pcbnew,10.0.7*%
%TF.CreationDate,2026-10-09T12:39:54+08:00*%
%TF.ProjectId,AIPE_Buck_1kW,41495045-5f42-4756-936b-5f316b572e6b,V1*%
%TF.SameCoordinates,Original*%
%TF.FileFunction,Soldermask,Bot*%
%TF.FilePolarity,Negative*%
%FSLAX46Y46*%
G04 Gerber Fmt 4.6, Leading zero omitted, Abs format (unit mm)*
G04 Created by KiCad (PCBNEW 10.0.7) date 2026-10-09 12:39:54*
%MOMM*%
%LPD*%
G01*
G04 APERTURE LIST*
G04 Aperture macros list*
%AMRoundRect*
0 Rectangle with rounded corners*
0 $1 Rounding radius*
0 $2 $3 $4 $5 $6 $7 $8 $9 X,Y pos of 4 corners*
0 Add a 4 corners polygon primitive as box body*
4,1,4,$2,$3,$4,$5,$6,$7,$8,$9,$2,$3,0*
0 Add four circle primitives for the rounded corners*
1,1,$1+$1,$2,$3*
1,1,$1+$1,$4,$5*
1,1,$1+$1,$6,$7*
1,1,$1+$1,$8,$9*
0 Add four rect primitives between the rounded corners*
20,1,$1+$1,$2,$3,$4,$5,0*
20,1,$1+$1,$4,$5,$6,$7,0*
20,1,$1+$1,$6,$7,$8,$9,0*
20,1,$1+$1,$8,$9,$2,$3,0*%
G04 Aperture macros list end*
%ADD10C,3.200000*%
%ADD11R,1.905000X2.000000*%
%ADD12O,1.905000X2.000000*%
%ADD13RoundRect,0.250001X-0.949999X-0.949999X0.949999X-0.949999X0.949999X0.949999X-0.949999X0.949999X0*%
%ADD14C,2.400000*%
%ADD15R,1.700000X1.700000*%
%ADD16C,1.700000*%
%ADD17C,12.000000*%
%ADD18O,12.000000X7.000000*%
%ADD19RoundRect,0.250000X-0.550000X-0.550000X0.550000X-0.550000X0.550000X0.550000X-0.550000X0.550000X0*%
%ADD20C,1.600000*%
G04 APERTURE END LIST*
D10*
%TO.C,J3*%
X275565000Y-35565000D03*
X275565000Y-40000000D03*
X275565000Y-44435000D03*
X280000000Y-35565000D03*
X280000000Y-40000000D03*
X280000000Y-44435000D03*
X284435000Y-35565000D03*
X284435000Y-40000000D03*
X284435000Y-44435000D03*
%TD*%
D11*
%TO.C,Q1*%
X112000000Y-42000000D03*
D12*
X114540000Y-42000000D03*
X117080000Y-42000000D03*
%TD*%
D13*
%TO.C,C3*%
X72000000Y-39000000D03*
D14*
X79500000Y-39000000D03*
%TD*%
D13*
%TO.C,C6*%
X51000000Y-60000000D03*
D14*
X58500000Y-60000000D03*
%TD*%
D13*
%TO.C,C26*%
X260000000Y-57000000D03*
D14*
X267500000Y-57000000D03*
%TD*%
D13*
%TO.C,C4*%
X93000000Y-39000000D03*
D14*
X100500000Y-39000000D03*
%TD*%
D13*
%TO.C,C11*%
X72000000Y-81000000D03*
D14*
X79500000Y-81000000D03*
%TD*%
D13*
%TO.C,C10*%
X51000000Y-81000000D03*
D14*
X58500000Y-81000000D03*
%TD*%
D10*
%TO.C,H2*%
X295000000Y-5000000D03*
%TD*%
%TO.C,J2*%
X7565000Y-99565000D03*
X7565000Y-104000000D03*
X7565000Y-108435000D03*
X12000000Y-99565000D03*
X12000000Y-104000000D03*
X12000000Y-108435000D03*
X16435000Y-99565000D03*
X16435000Y-104000000D03*
X16435000Y-108435000D03*
%TD*%
D13*
%TO.C,C9*%
X30000000Y-81000000D03*
D14*
X37500000Y-81000000D03*
%TD*%
D11*
%TO.C,Q3*%
X112000000Y-55000000D03*
D12*
X114540000Y-55000000D03*
X117080000Y-55000000D03*
%TD*%
D11*
%TO.C,Q4*%
X126000000Y-55000000D03*
D12*
X128540000Y-55000000D03*
X131080000Y-55000000D03*
%TD*%
D13*
%TO.C,C12*%
X93000000Y-81000000D03*
D14*
X100500000Y-81000000D03*
%TD*%
D13*
%TO.C,C13*%
X30000000Y-102000000D03*
D14*
X37500000Y-102000000D03*
%TD*%
D15*
%TO.C,J8*%
X240000000Y-206000000D03*
D16*
X240000000Y-208540000D03*
X240000000Y-211080000D03*
%TD*%
D10*
%TO.C,H4*%
X150000000Y-215000000D03*
%TD*%
D15*
%TO.C,J6*%
X275000000Y-140000000D03*
D16*
X275000000Y-142540000D03*
%TD*%
D11*
%TO.C,Q2*%
X126000000Y-42000000D03*
D12*
X128540000Y-42000000D03*
X131080000Y-42000000D03*
%TD*%
D10*
%TO.C,H1*%
X4000000Y-4000000D03*
%TD*%
D13*
%TO.C,C2*%
X51000000Y-39000000D03*
D14*
X58500000Y-39000000D03*
%TD*%
D13*
%TO.C,C14*%
X51000000Y-102000000D03*
D14*
X58500000Y-102000000D03*
%TD*%
D10*
%TO.C,H6*%
X136000000Y-24000000D03*
%TD*%
D13*
%TO.C,C25*%
X237000000Y-57000000D03*
D14*
X244500000Y-57000000D03*
%TD*%
D10*
%TO.C,H3*%
X5000000Y-215000000D03*
%TD*%
%TO.C,H5*%
X295000000Y-215000000D03*
%TD*%
%TO.C,H7*%
X193000000Y-24000000D03*
%TD*%
%TO.C,H8*%
X165000000Y-76000000D03*
%TD*%
D13*
%TO.C,C24*%
X260000000Y-32000000D03*
D14*
X267500000Y-32000000D03*
%TD*%
D10*
%TO.C,J4*%
X275565000Y-85565000D03*
X275565000Y-90000000D03*
X275565000Y-94435000D03*
X280000000Y-85565000D03*
X280000000Y-90000000D03*
X280000000Y-94435000D03*
X284435000Y-85565000D03*
X284435000Y-90000000D03*
X284435000Y-94435000D03*
%TD*%
%TO.C,J1*%
X10565000Y-10565000D03*
X10565000Y-15000000D03*
X10565000Y-19435000D03*
X15000000Y-10565000D03*
X15000000Y-15000000D03*
X15000000Y-19435000D03*
X19435000Y-10565000D03*
X19435000Y-15000000D03*
X19435000Y-19435000D03*
%TD*%
D13*
%TO.C,C23*%
X237000000Y-32000000D03*
D14*
X244500000Y-32000000D03*
%TD*%
D17*
%TO.C,F1*%
X40000000Y-15000000D03*
X70000000Y-15000000D03*
%TD*%
D13*
%TO.C,C1*%
X30000000Y-39000000D03*
D14*
X37500000Y-39000000D03*
%TD*%
D15*
%TO.C,J7*%
X221000000Y-191000000D03*
D16*
X223540000Y-191000000D03*
X221000000Y-193540000D03*
X223540000Y-193540000D03*
X221000000Y-196080000D03*
X223540000Y-196080000D03*
X221000000Y-198620000D03*
X223540000Y-198620000D03*
X221000000Y-201160000D03*
X223540000Y-201160000D03*
X221000000Y-203700000D03*
X223540000Y-203700000D03*
X221000000Y-206240000D03*
X223540000Y-206240000D03*
%TD*%
D13*
%TO.C,C8*%
X93000000Y-60000000D03*
D14*
X100500000Y-60000000D03*
%TD*%
D15*
%TO.C,J9*%
X270000000Y-206000000D03*
D16*
X270000000Y-208540000D03*
X270000000Y-211080000D03*
%TD*%
D18*
%TO.C,L1*%
X148745000Y-45000000D03*
X181255000Y-45000000D03*
%TD*%
D19*
%TO.C,C45*%
X102000000Y-152500000D03*
D20*
X104500000Y-152500000D03*
%TD*%
D13*
%TO.C,C7*%
X72000000Y-60000000D03*
D14*
X79500000Y-60000000D03*
%TD*%
D15*
%TO.C,J5*%
X151000000Y-145000000D03*
D16*
X151000000Y-147540000D03*
%TD*%
D13*
%TO.C,C5*%
X30000000Y-60000000D03*
D14*
X37500000Y-60000000D03*
%TD*%
M02*
