%TF.GenerationSoftware,KiCad,Pcbnew,10.0.7*%
%TF.CreationDate,2026-10-09T12:39:54+08:00*%
%TF.ProjectId,AIPE_Buck_1kW,41495045-5f42-4756-936b-5f316b572e6b,V1*%
%TF.SameCoordinates,Original*%
%TF.FileFunction,Soldermask,Top*%
%TF.FilePolarity,Negative*%
%FSLAX46Y46*%
G04 Gerber Fmt 4.6, Leading zero omitted, Abs format (unit mm)*
G04 Created by KiCad (PCBNEW 10.0.7) date 2026-10-09 12:39:54*
%MOMM*%
%LPD*%
G01*
G04 APERTURE LIST*
G04 Aperture macros list*
%AMRoundRect*
0 Rectangle with rounded corners*
0 $1 Rounding radius*
0 $2 $3 $4 $5 $6 $7 $8 $9 X,Y pos of 4 corners*
0 Add a 4 corners polygon primitive as box body*
4,1,4,$2,$3,$4,$5,$6,$7,$8,$9,$2,$3,0*
0 Add four circle primitives for the rounded corners*
1,1,$1+$1,$2,$3*
1,1,$1+$1,$4,$5*
1,1,$1+$1,$6,$7*
1,1,$1+$1,$8,$9*
0 Add four rect primitives between the rounded corners*
20,1,$1+$1,$2,$3,$4,$5,0*
20,1,$1+$1,$4,$5,$6,$7,0*
20,1,$1+$1,$6,$7,$8,$9,0*
20,1,$1+$1,$8,$9,$2,$3,0*%
G04 Aperture macros list end*
%ADD10RoundRect,0.249999X-0.640001X-1.530001X0.640001X-1.530001X0.640001X1.530001X-0.640001X1.530001X0*%
%ADD11C,3.200000*%
%ADD12RoundRect,0.250000X0.450000X-0.262500X0.450000X0.262500X-0.450000X0.262500X-0.450000X-0.262500X0*%
%ADD13R,1.905000X2.000000*%
%ADD14O,1.905000X2.000000*%
%ADD15RoundRect,0.250000X1.000000X-1.400000X1.000000X1.400000X-1.000000X1.400000X-1.000000X-1.400000X0*%
%ADD16RoundRect,0.250000X-0.262500X-0.450000X0.262500X-0.450000X0.262500X0.450000X-0.262500X0.450000X0*%
%ADD17RoundRect,0.250000X0.475000X-0.250000X0.475000X0.250000X-0.475000X0.250000X-0.475000X-0.250000X0*%
%ADD18RoundRect,0.250001X-0.949999X-0.949999X0.949999X-0.949999X0.949999X0.949999X-0.949999X0.949999X0*%
%ADD19C,2.400000*%
%ADD20RoundRect,0.250000X-0.325000X-1.100000X0.325000X-1.100000X0.325000X1.100000X-0.325000X1.100000X0*%
%ADD21RoundRect,0.250000X-0.250000X-0.475000X0.250000X-0.475000X0.250000X0.475000X-0.250000X0.475000X0*%
%ADD22RoundRect,0.150000X-0.512500X-0.150000X0.512500X-0.150000X0.512500X0.150000X-0.512500X0.150000X0*%
%ADD23C,2.000000*%
%ADD24RoundRect,0.150000X0.150000X-0.587500X0.150000X0.587500X-0.150000X0.587500X-0.150000X-0.587500X0*%
%ADD25RoundRect,0.150000X-0.587500X-0.150000X0.587500X-0.150000X0.587500X0.150000X-0.587500X0.150000X0*%
%ADD26RoundRect,0.150000X-0.825000X-0.150000X0.825000X-0.150000X0.825000X0.150000X-0.825000X0.150000X0*%
%ADD27R,2.710000X3.400000*%
%ADD28RoundRect,0.150000X-0.737500X-0.150000X0.737500X-0.150000X0.737500X0.150000X-0.737500X0.150000X0*%
%ADD29RoundRect,0.250000X-0.362500X-1.425000X0.362500X-1.425000X0.362500X1.425000X-0.362500X1.425000X0*%
%ADD30RoundRect,0.075000X-0.675000X-0.075000X0.675000X-0.075000X0.675000X0.075000X-0.675000X0.075000X0*%
%ADD31RoundRect,0.075000X-0.075000X-0.675000X0.075000X-0.675000X0.075000X0.675000X-0.075000X0.675000X0*%
%ADD32R,1.600000X0.300000*%
%ADD33R,1.700000X1.700000*%
%ADD34C,1.700000*%
%ADD35R,2.550000X5.600000*%
%ADD36R,2.550000X0.900000*%
%ADD37RoundRect,0.100000X-0.637500X-0.100000X0.637500X-0.100000X0.637500X0.100000X-0.637500X0.100000X0*%
%ADD38R,2.850000X5.400000*%
%ADD39RoundRect,0.250000X1.100000X-0.325000X1.100000X0.325000X-1.100000X0.325000X-1.100000X-0.325000X0*%
%ADD40RoundRect,0.250000X-1.500000X-0.550000X1.500000X-0.550000X1.500000X0.550000X-1.500000X0.550000X0*%
%ADD41RoundRect,0.250000X-0.650000X-0.750000X0.650000X-0.750000X0.650000X0.750000X-0.650000X0.750000X0*%
%ADD42C,12.000000*%
%ADD43RoundRect,0.250000X-1.750000X-2.500000X1.750000X-2.500000X1.750000X2.500000X-1.750000X2.500000X0*%
%ADD44O,12.000000X7.000000*%
%ADD45RoundRect,0.250000X-0.550000X-0.550000X0.550000X-0.550000X0.550000X0.550000X-0.550000X0.550000X0*%
%ADD46C,1.600000*%
G04 APERTURE END LIST*
D10*
%TO.C,L3*%
X88300000Y-146000000D03*
X97700000Y-146000000D03*
%TD*%
D11*
%TO.C,J3*%
X275565000Y-35565000D03*
X275565000Y-40000000D03*
X275565000Y-44435000D03*
X280000000Y-35565000D03*
X280000000Y-40000000D03*
X280000000Y-44435000D03*
X284435000Y-35565000D03*
X284435000Y-40000000D03*
X284435000Y-44435000D03*
%TD*%
D12*
%TO.C,R26*%
X117000000Y-143412500D03*
X117000000Y-141587500D03*
%TD*%
D13*
%TO.C,Q1*%
X112000000Y-42000000D03*
D14*
X114540000Y-42000000D03*
X117080000Y-42000000D03*
%TD*%
D15*
%TO.C,D1*%
X80600000Y-15000000D03*
X87400000Y-15000000D03*
%TD*%
D16*
%TO.C,R54*%
X136087500Y-92000000D03*
X137912500Y-92000000D03*
%TD*%
D17*
%TO.C,C62*%
X247500000Y-138950000D03*
X247500000Y-137050000D03*
%TD*%
D18*
%TO.C,C3*%
X72000000Y-39000000D03*
D19*
X79500000Y-39000000D03*
%TD*%
D12*
%TO.C,R34*%
X204500000Y-70912500D03*
X204500000Y-69087500D03*
%TD*%
D20*
%TO.C,C19*%
X107525000Y-71000000D03*
X110475000Y-71000000D03*
%TD*%
D21*
%TO.C,C34*%
X35550000Y-138500000D03*
X37450000Y-138500000D03*
%TD*%
%TO.C,C78*%
X164050000Y-180000000D03*
X165950000Y-180000000D03*
%TD*%
D17*
%TO.C,C86*%
X196500000Y-178450000D03*
X196500000Y-176550000D03*
%TD*%
D16*
%TO.C,R45*%
X252587500Y-161500000D03*
X254412500Y-161500000D03*
%TD*%
D22*
%TO.C,U13*%
X141862500Y-88050000D03*
X141862500Y-89000000D03*
X141862500Y-89950000D03*
X144137500Y-89950000D03*
X144137500Y-88050000D03*
%TD*%
D17*
%TO.C,C91*%
X199500000Y-165950000D03*
X199500000Y-164050000D03*
%TD*%
D18*
%TO.C,C6*%
X51000000Y-60000000D03*
D19*
X58500000Y-60000000D03*
%TD*%
D17*
%TO.C,C68*%
X264500000Y-155950000D03*
X264500000Y-154050000D03*
%TD*%
D12*
%TO.C,R51*%
X130500000Y-101412500D03*
X130500000Y-99587500D03*
%TD*%
D16*
%TO.C,R61*%
X207087500Y-179500000D03*
X208912500Y-179500000D03*
%TD*%
D23*
%TO.C,TP5*%
X122000000Y-183000000D03*
%TD*%
D16*
%TO.C,R21*%
X83087500Y-150500000D03*
X84912500Y-150500000D03*
%TD*%
D21*
%TO.C,C74*%
X164050000Y-167000000D03*
X165950000Y-167000000D03*
%TD*%
D24*
%TO.C,D9*%
X207550000Y-76937500D03*
X209450000Y-76937500D03*
X208500000Y-75062500D03*
%TD*%
D25*
%TO.C,U9*%
X250062500Y-138050000D03*
X250062500Y-139950000D03*
X251937500Y-139000000D03*
%TD*%
D26*
%TO.C,U10*%
X253525000Y-155095000D03*
X253525000Y-156365000D03*
X253525000Y-157635000D03*
X253525000Y-158905000D03*
X258475000Y-158905000D03*
X258475000Y-157635000D03*
X258475000Y-156365000D03*
X258475000Y-155095000D03*
%TD*%
D27*
%TO.C,U1*%
X123000000Y-48100000D03*
D28*
X120437500Y-46195000D03*
X120437500Y-47465000D03*
X120437500Y-48735000D03*
X120437500Y-50005000D03*
X125562500Y-50005000D03*
X125562500Y-48735000D03*
X125562500Y-47465000D03*
X125562500Y-46195000D03*
%TD*%
D18*
%TO.C,C26*%
X260000000Y-57000000D03*
D19*
X267500000Y-57000000D03*
%TD*%
D24*
%TO.C,D3*%
X215550000Y-73937500D03*
X217450000Y-73937500D03*
X216500000Y-72062500D03*
%TD*%
D21*
%TO.C,C95*%
X179550000Y-157500000D03*
X181450000Y-157500000D03*
%TD*%
%TO.C,C59*%
X224050000Y-103500000D03*
X225950000Y-103500000D03*
%TD*%
%TO.C,C52*%
X207050000Y-72500000D03*
X208950000Y-72500000D03*
%TD*%
D17*
%TO.C,C76*%
X165500000Y-174450000D03*
X165500000Y-172550000D03*
%TD*%
D22*
%TO.C,U5*%
X145862500Y-130050000D03*
X145862500Y-131000000D03*
X145862500Y-131950000D03*
X148137500Y-131950000D03*
X148137500Y-131000000D03*
X148137500Y-130050000D03*
%TD*%
D12*
%TO.C,R40*%
X219000000Y-107412500D03*
X219000000Y-105587500D03*
%TD*%
D17*
%TO.C,C66*%
X279500000Y-158450000D03*
X279500000Y-156550000D03*
%TD*%
D21*
%TO.C,C56*%
X215050000Y-69500000D03*
X216950000Y-69500000D03*
%TD*%
D17*
%TO.C,C87*%
X196500000Y-174450000D03*
X196500000Y-172550000D03*
%TD*%
D16*
%TO.C,R14*%
X30587500Y-138500000D03*
X32412500Y-138500000D03*
%TD*%
D21*
%TO.C,C105*%
X203050000Y-177000000D03*
X204950000Y-177000000D03*
%TD*%
D25*
%TO.C,D12*%
X264062500Y-158050000D03*
X264062500Y-159950000D03*
X265937500Y-159000000D03*
%TD*%
D12*
%TO.C,R35*%
X204500000Y-74912500D03*
X204500000Y-73087500D03*
%TD*%
D20*
%TO.C,C33*%
X30025000Y-148000000D03*
X32975000Y-148000000D03*
%TD*%
D18*
%TO.C,C4*%
X93000000Y-39000000D03*
D19*
X100500000Y-39000000D03*
%TD*%
D21*
%TO.C,C77*%
X164050000Y-177000000D03*
X165950000Y-177000000D03*
%TD*%
D20*
%TO.C,C40*%
X78525000Y-147000000D03*
X81475000Y-147000000D03*
%TD*%
D17*
%TO.C,C101*%
X173500000Y-189950000D03*
X173500000Y-188050000D03*
%TD*%
D20*
%TO.C,C17*%
X121525000Y-31000000D03*
X124475000Y-31000000D03*
%TD*%
D18*
%TO.C,C11*%
X72000000Y-81000000D03*
D19*
X79500000Y-81000000D03*
%TD*%
D16*
%TO.C,R48*%
X257587500Y-150000000D03*
X259412500Y-150000000D03*
%TD*%
%TO.C,R13*%
X128087500Y-47500000D03*
X129912500Y-47500000D03*
%TD*%
%TO.C,R31*%
X121087500Y-133500000D03*
X122912500Y-133500000D03*
%TD*%
D18*
%TO.C,C10*%
X51000000Y-81000000D03*
D19*
X58500000Y-81000000D03*
%TD*%
D11*
%TO.C,H2*%
X295000000Y-5000000D03*
%TD*%
%TO.C,J2*%
X7565000Y-99565000D03*
X7565000Y-104000000D03*
X7565000Y-108435000D03*
X12000000Y-99565000D03*
X12000000Y-104000000D03*
X12000000Y-108435000D03*
X16435000Y-99565000D03*
X16435000Y-104000000D03*
X16435000Y-108435000D03*
%TD*%
D29*
%TO.C,R10*%
X48037500Y-115000000D03*
X53962500Y-115000000D03*
%TD*%
D24*
%TO.C,D11*%
X267050000Y-153937500D03*
X268950000Y-153937500D03*
X268000000Y-152062500D03*
%TD*%
D26*
%TO.C,U8*%
X220525000Y-120190000D03*
X220525000Y-121460000D03*
X220525000Y-122730000D03*
X220525000Y-124000000D03*
X220525000Y-125270000D03*
X220525000Y-126540000D03*
X220525000Y-127810000D03*
X225475000Y-127810000D03*
X225475000Y-126540000D03*
X225475000Y-125270000D03*
X225475000Y-124000000D03*
X225475000Y-122730000D03*
X225475000Y-121460000D03*
X225475000Y-120190000D03*
%TD*%
D16*
%TO.C,R68*%
X202587500Y-187000000D03*
X204412500Y-187000000D03*
%TD*%
D12*
%TO.C,R53*%
X136000000Y-89412500D03*
X136000000Y-87587500D03*
%TD*%
D30*
%TO.C,U16*%
X168325000Y-162250000D03*
X168325000Y-162750000D03*
X168325000Y-163250000D03*
X168325000Y-163750000D03*
X168325000Y-164250000D03*
X168325000Y-164750000D03*
X168325000Y-165250000D03*
X168325000Y-165750000D03*
X168325000Y-166250000D03*
X168325000Y-166750000D03*
X168325000Y-167250000D03*
X168325000Y-167750000D03*
X168325000Y-168250000D03*
X168325000Y-168750000D03*
X168325000Y-169250000D03*
X168325000Y-169750000D03*
X168325000Y-170250000D03*
X168325000Y-170750000D03*
X168325000Y-171250000D03*
X168325000Y-171750000D03*
X168325000Y-172250000D03*
X168325000Y-172750000D03*
X168325000Y-173250000D03*
X168325000Y-173750000D03*
X168325000Y-174250000D03*
X168325000Y-174750000D03*
X168325000Y-175250000D03*
X168325000Y-175750000D03*
X168325000Y-176250000D03*
X168325000Y-176750000D03*
X168325000Y-177250000D03*
X168325000Y-177750000D03*
X168325000Y-178250000D03*
X168325000Y-178750000D03*
X168325000Y-179250000D03*
X168325000Y-179750000D03*
X168325000Y-180250000D03*
X168325000Y-180750000D03*
X168325000Y-181250000D03*
X168325000Y-181750000D03*
X168325000Y-182250000D03*
X168325000Y-182750000D03*
X168325000Y-183250000D03*
X168325000Y-183750000D03*
D31*
X170250000Y-185675000D03*
X170750000Y-185675000D03*
X171250000Y-185675000D03*
X171750000Y-185675000D03*
X172250000Y-185675000D03*
X172750000Y-185675000D03*
X173250000Y-185675000D03*
X173750000Y-185675000D03*
X174250000Y-185675000D03*
X174750000Y-185675000D03*
X175250000Y-185675000D03*
X175750000Y-185675000D03*
X176250000Y-185675000D03*
X176750000Y-185675000D03*
X177250000Y-185675000D03*
X177750000Y-185675000D03*
X178250000Y-185675000D03*
X178750000Y-185675000D03*
X179250000Y-185675000D03*
X179750000Y-185675000D03*
X180250000Y-185675000D03*
X180750000Y-185675000D03*
X181250000Y-185675000D03*
X181750000Y-185675000D03*
X182250000Y-185675000D03*
X182750000Y-185675000D03*
X183250000Y-185675000D03*
X183750000Y-185675000D03*
X184250000Y-185675000D03*
X184750000Y-185675000D03*
X185250000Y-185675000D03*
X185750000Y-185675000D03*
X186250000Y-185675000D03*
X186750000Y-185675000D03*
X187250000Y-185675000D03*
X187750000Y-185675000D03*
X188250000Y-185675000D03*
X188750000Y-185675000D03*
X189250000Y-185675000D03*
X189750000Y-185675000D03*
X190250000Y-185675000D03*
X190750000Y-185675000D03*
X191250000Y-185675000D03*
X191750000Y-185675000D03*
D30*
X193675000Y-183750000D03*
X193675000Y-183250000D03*
X193675000Y-182750000D03*
X193675000Y-182250000D03*
X193675000Y-181750000D03*
X193675000Y-181250000D03*
X193675000Y-180750000D03*
X193675000Y-180250000D03*
X193675000Y-179750000D03*
X193675000Y-179250000D03*
X193675000Y-178750000D03*
X193675000Y-178250000D03*
X193675000Y-177750000D03*
X193675000Y-177250000D03*
X193675000Y-176750000D03*
X193675000Y-176250000D03*
X193675000Y-175750000D03*
X193675000Y-175250000D03*
X193675000Y-174750000D03*
X193675000Y-174250000D03*
X193675000Y-173750000D03*
X193675000Y-173250000D03*
X193675000Y-172750000D03*
X193675000Y-172250000D03*
X193675000Y-171750000D03*
X193675000Y-171250000D03*
X193675000Y-170750000D03*
X193675000Y-170250000D03*
X193675000Y-169750000D03*
X193675000Y-169250000D03*
X193675000Y-168750000D03*
X193675000Y-168250000D03*
X193675000Y-167750000D03*
X193675000Y-167250000D03*
X193675000Y-166750000D03*
X193675000Y-166250000D03*
X193675000Y-165750000D03*
X193675000Y-165250000D03*
X193675000Y-164750000D03*
X193675000Y-164250000D03*
X193675000Y-163750000D03*
X193675000Y-163250000D03*
X193675000Y-162750000D03*
X193675000Y-162250000D03*
D31*
X191750000Y-160325000D03*
X191250000Y-160325000D03*
X190750000Y-160325000D03*
X190250000Y-160325000D03*
X189750000Y-160325000D03*
X189250000Y-160325000D03*
X188750000Y-160325000D03*
X188250000Y-160325000D03*
X187750000Y-160325000D03*
X187250000Y-160325000D03*
X186750000Y-160325000D03*
X186250000Y-160325000D03*
X185750000Y-160325000D03*
X185250000Y-160325000D03*
X184750000Y-160325000D03*
X184250000Y-160325000D03*
X183750000Y-160325000D03*
X183250000Y-160325000D03*
X182750000Y-160325000D03*
X182250000Y-160325000D03*
X181750000Y-160325000D03*
X181250000Y-160325000D03*
X180750000Y-160325000D03*
X180250000Y-160325000D03*
X179750000Y-160325000D03*
X179250000Y-160325000D03*
X178750000Y-160325000D03*
X178250000Y-160325000D03*
X177750000Y-160325000D03*
X177250000Y-160325000D03*
X176750000Y-160325000D03*
X176250000Y-160325000D03*
X175750000Y-160325000D03*
X175250000Y-160325000D03*
X174750000Y-160325000D03*
X174250000Y-160325000D03*
X173750000Y-160325000D03*
X173250000Y-160325000D03*
X172750000Y-160325000D03*
X172250000Y-160325000D03*
X171750000Y-160325000D03*
X171250000Y-160325000D03*
X170750000Y-160325000D03*
X170250000Y-160325000D03*
%TD*%
D12*
%TO.C,R67*%
X217500000Y-202412500D03*
X217500000Y-200587500D03*
%TD*%
D17*
%TO.C,C51*%
X128000000Y-132950000D03*
X128000000Y-131050000D03*
%TD*%
D16*
%TO.C,R60*%
X203087500Y-182000000D03*
X204912500Y-182000000D03*
%TD*%
D32*
%TO.C,U12*%
X124300000Y-90025000D03*
X124300000Y-90675000D03*
X124300000Y-91325000D03*
X124300000Y-91975000D03*
X127700000Y-91975000D03*
X127700000Y-91325000D03*
X127700000Y-90675000D03*
X127700000Y-90025000D03*
%TD*%
D17*
%TO.C,C100*%
X161500000Y-170450000D03*
X161500000Y-168550000D03*
%TD*%
D18*
%TO.C,C9*%
X30000000Y-81000000D03*
D19*
X37500000Y-81000000D03*
%TD*%
D12*
%TO.C,R27*%
X130500000Y-148412500D03*
X130500000Y-146587500D03*
%TD*%
D13*
%TO.C,Q3*%
X112000000Y-55000000D03*
D14*
X114540000Y-55000000D03*
X117080000Y-55000000D03*
%TD*%
D16*
%TO.C,R63*%
X207087500Y-182000000D03*
X208912500Y-182000000D03*
%TD*%
D13*
%TO.C,Q4*%
X126000000Y-55000000D03*
D14*
X128540000Y-55000000D03*
X131080000Y-55000000D03*
%TD*%
D18*
%TO.C,C12*%
X93000000Y-81000000D03*
D19*
X100500000Y-81000000D03*
%TD*%
D17*
%TO.C,C63*%
X254500000Y-140950000D03*
X254500000Y-139050000D03*
%TD*%
%TO.C,C88*%
X199500000Y-174450000D03*
X199500000Y-172550000D03*
%TD*%
%TO.C,C61*%
X221500000Y-107450000D03*
X221500000Y-105550000D03*
%TD*%
D16*
%TO.C,R56*%
X199087500Y-184000000D03*
X200912500Y-184000000D03*
%TD*%
D18*
%TO.C,C13*%
X30000000Y-102000000D03*
D19*
X37500000Y-102000000D03*
%TD*%
D27*
%TO.C,U2*%
X34000000Y-143000000D03*
D28*
X31437500Y-141095000D03*
X31437500Y-142365000D03*
X31437500Y-143635000D03*
X31437500Y-144905000D03*
X36562500Y-144905000D03*
X36562500Y-143635000D03*
X36562500Y-142365000D03*
X36562500Y-141095000D03*
%TD*%
D12*
%TO.C,R4*%
X137000000Y-50912500D03*
X137000000Y-49087500D03*
%TD*%
D24*
%TO.C,D5*%
X219550000Y-72937500D03*
X221450000Y-72937500D03*
X220500000Y-71062500D03*
%TD*%
D17*
%TO.C,C54*%
X217500000Y-123450000D03*
X217500000Y-121550000D03*
%TD*%
D20*
%TO.C,C18*%
X128525000Y-31000000D03*
X131475000Y-31000000D03*
%TD*%
D16*
%TO.C,R65*%
X207087500Y-184500000D03*
X208912500Y-184500000D03*
%TD*%
D17*
%TO.C,C37*%
X59500000Y-147450000D03*
X59500000Y-145550000D03*
%TD*%
D12*
%TO.C,R28*%
X118500000Y-151412500D03*
X118500000Y-149587500D03*
%TD*%
D16*
%TO.C,R17*%
X39587500Y-138000000D03*
X41412500Y-138000000D03*
%TD*%
%TO.C,R22*%
X79087500Y-150500000D03*
X80912500Y-150500000D03*
%TD*%
D33*
%TO.C,J8*%
X240000000Y-206000000D03*
D34*
X240000000Y-208540000D03*
X240000000Y-211080000D03*
%TD*%
D35*
%TO.C,R9*%
X202975000Y-45850000D03*
X211025000Y-45850000D03*
D36*
X202975000Y-41800000D03*
X211025000Y-41800000D03*
%TD*%
D37*
%TO.C,U4*%
X122137500Y-138775000D03*
X122137500Y-139425000D03*
X122137500Y-140075000D03*
X122137500Y-140725000D03*
X122137500Y-141375000D03*
X122137500Y-142025000D03*
X122137500Y-142675000D03*
X122137500Y-143325000D03*
X122137500Y-143975000D03*
X122137500Y-144625000D03*
X122137500Y-145275000D03*
X122137500Y-145925000D03*
X122137500Y-146575000D03*
X122137500Y-147225000D03*
X127862500Y-147225000D03*
X127862500Y-146575000D03*
X127862500Y-145925000D03*
X127862500Y-145275000D03*
X127862500Y-144625000D03*
X127862500Y-143975000D03*
X127862500Y-143325000D03*
X127862500Y-142675000D03*
X127862500Y-142025000D03*
X127862500Y-141375000D03*
X127862500Y-140725000D03*
X127862500Y-140075000D03*
X127862500Y-139425000D03*
X127862500Y-138775000D03*
D38*
X125000000Y-143000000D03*
%TD*%
D21*
%TO.C,C38*%
X35550000Y-147500000D03*
X37450000Y-147500000D03*
%TD*%
D17*
%TO.C,C44*%
X84000000Y-147950000D03*
X84000000Y-146050000D03*
%TD*%
D16*
%TO.C,R15*%
X36587500Y-150000000D03*
X38412500Y-150000000D03*
%TD*%
D11*
%TO.C,H4*%
X150000000Y-215000000D03*
%TD*%
D26*
%TO.C,U6*%
X207525000Y-66095000D03*
X207525000Y-67365000D03*
X207525000Y-68635000D03*
X207525000Y-69905000D03*
X212475000Y-69905000D03*
X212475000Y-68635000D03*
X212475000Y-67365000D03*
X212475000Y-66095000D03*
%TD*%
D12*
%TO.C,R66*%
X227000000Y-191912500D03*
X227000000Y-190087500D03*
%TD*%
D21*
%TO.C,C97*%
X171550000Y-157500000D03*
X173450000Y-157500000D03*
%TD*%
D20*
%TO.C,C49*%
X116525000Y-146500000D03*
X119475000Y-146500000D03*
%TD*%
D29*
%TO.C,R11*%
X91037500Y-115000000D03*
X96962500Y-115000000D03*
%TD*%
D17*
%TO.C,C73*%
X165500000Y-164450000D03*
X165500000Y-162550000D03*
%TD*%
D33*
%TO.C,J6*%
X275000000Y-140000000D03*
D34*
X275000000Y-142540000D03*
%TD*%
D23*
%TO.C,TP6*%
X165000000Y-183500000D03*
%TD*%
D12*
%TO.C,R6*%
X107500000Y-63912500D03*
X107500000Y-62087500D03*
%TD*%
D23*
%TO.C,TP10*%
X213000000Y-183000000D03*
%TD*%
D24*
%TO.C,D2*%
X140550000Y-139937500D03*
X142450000Y-139937500D03*
X141500000Y-138062500D03*
%TD*%
D21*
%TO.C,C41*%
X75550000Y-143500000D03*
X77450000Y-143500000D03*
%TD*%
D16*
%TO.C,R37*%
X216087500Y-119000000D03*
X217912500Y-119000000D03*
%TD*%
D23*
%TO.C,TP12*%
X215500000Y-187500000D03*
%TD*%
D17*
%TO.C,C71*%
X133500000Y-91450000D03*
X133500000Y-89550000D03*
%TD*%
D21*
%TO.C,C57*%
X211550000Y-75500000D03*
X213450000Y-75500000D03*
%TD*%
D17*
%TO.C,C67*%
X261500000Y-155950000D03*
X261500000Y-154050000D03*
%TD*%
D16*
%TO.C,R62*%
X203087500Y-184500000D03*
X204912500Y-184500000D03*
%TD*%
D24*
%TO.C,D6*%
X219550000Y-77437500D03*
X221450000Y-77437500D03*
X220500000Y-75562500D03*
%TD*%
D21*
%TO.C,C96*%
X175550000Y-157500000D03*
X177450000Y-157500000D03*
%TD*%
D16*
%TO.C,R23*%
X126587500Y-136000000D03*
X128412500Y-136000000D03*
%TD*%
D17*
%TO.C,C48*%
X119500000Y-143450000D03*
X119500000Y-141550000D03*
%TD*%
D39*
%TO.C,C35*%
X56000000Y-147475000D03*
X56000000Y-144525000D03*
%TD*%
D25*
%TO.C,D10*%
X206062500Y-79550000D03*
X206062500Y-81450000D03*
X207937500Y-80500000D03*
%TD*%
D13*
%TO.C,Q2*%
X126000000Y-42000000D03*
D14*
X128540000Y-42000000D03*
X131080000Y-42000000D03*
%TD*%
D16*
%TO.C,R58*%
X203087500Y-179500000D03*
X204912500Y-179500000D03*
%TD*%
D12*
%TO.C,R2*%
X107500000Y-50912500D03*
X107500000Y-49087500D03*
%TD*%
D20*
%TO.C,C28*%
X119525000Y-78000000D03*
X122475000Y-78000000D03*
%TD*%
D11*
%TO.C,H1*%
X4000000Y-4000000D03*
%TD*%
D40*
%TO.C,C46*%
X131800000Y-141500000D03*
X137200000Y-141500000D03*
%TD*%
D16*
%TO.C,R12*%
X128087500Y-50000000D03*
X129912500Y-50000000D03*
%TD*%
D21*
%TO.C,C92*%
X187550000Y-157500000D03*
X189450000Y-157500000D03*
%TD*%
D25*
%TO.C,Q5*%
X121062500Y-149550000D03*
X121062500Y-151450000D03*
X122937500Y-150500000D03*
%TD*%
D20*
%TO.C,C21*%
X121525000Y-71000000D03*
X124475000Y-71000000D03*
%TD*%
%TO.C,C27*%
X109525000Y-78000000D03*
X112475000Y-78000000D03*
%TD*%
D18*
%TO.C,C2*%
X51000000Y-39000000D03*
D19*
X58500000Y-39000000D03*
%TD*%
D20*
%TO.C,C20*%
X114525000Y-71000000D03*
X117475000Y-71000000D03*
%TD*%
D21*
%TO.C,C94*%
X184050000Y-154500000D03*
X185950000Y-154500000D03*
%TD*%
D18*
%TO.C,C14*%
X51000000Y-102000000D03*
D19*
X58500000Y-102000000D03*
%TD*%
D16*
%TO.C,R46*%
X257087500Y-152500000D03*
X258912500Y-152500000D03*
%TD*%
%TO.C,R19*%
X79087500Y-139500000D03*
X80912500Y-139500000D03*
%TD*%
D21*
%TO.C,C60*%
X224050000Y-109500000D03*
X225950000Y-109500000D03*
%TD*%
D16*
%TO.C,R44*%
X252587500Y-152500000D03*
X254412500Y-152500000D03*
%TD*%
%TO.C,R18*%
X35587500Y-136000000D03*
X37412500Y-136000000D03*
%TD*%
D25*
%TO.C,U7*%
X127062500Y-61050000D03*
X127062500Y-62950000D03*
X128937500Y-62000000D03*
%TD*%
D16*
%TO.C,R24*%
X122587500Y-136000000D03*
X124412500Y-136000000D03*
%TD*%
%TO.C,R47*%
X270587500Y-161500000D03*
X272412500Y-161500000D03*
%TD*%
D11*
%TO.C,H6*%
X136000000Y-24000000D03*
%TD*%
D17*
%TO.C,C85*%
X196500000Y-182450000D03*
X196500000Y-180550000D03*
%TD*%
D21*
%TO.C,C31*%
X116050000Y-45500000D03*
X117950000Y-45500000D03*
%TD*%
%TO.C,C93*%
X183550000Y-157500000D03*
X185450000Y-157500000D03*
%TD*%
D17*
%TO.C,C83*%
X183500000Y-189950000D03*
X183500000Y-188050000D03*
%TD*%
D23*
%TO.C,TP2*%
X275500000Y-183000000D03*
%TD*%
D22*
%TO.C,U14*%
X141862500Y-96050000D03*
X141862500Y-97000000D03*
X141862500Y-97950000D03*
X144137500Y-97950000D03*
X144137500Y-96050000D03*
%TD*%
D18*
%TO.C,C25*%
X237000000Y-57000000D03*
D19*
X244500000Y-57000000D03*
%TD*%
D12*
%TO.C,R30*%
X141000000Y-133912500D03*
X141000000Y-132087500D03*
%TD*%
D23*
%TO.C,TP1*%
X51000000Y-183000000D03*
%TD*%
D16*
%TO.C,R43*%
X219087500Y-110000000D03*
X220912500Y-110000000D03*
%TD*%
D21*
%TO.C,C75*%
X164050000Y-170000000D03*
X165950000Y-170000000D03*
%TD*%
D11*
%TO.C,H3*%
X5000000Y-215000000D03*
%TD*%
%TO.C,H5*%
X295000000Y-215000000D03*
%TD*%
%TO.C,H7*%
X193000000Y-24000000D03*
%TD*%
%TO.C,H8*%
X165000000Y-76000000D03*
%TD*%
D39*
%TO.C,C42*%
X101000000Y-147475000D03*
X101000000Y-144525000D03*
%TD*%
D32*
%TO.C,U15*%
X124300000Y-100025000D03*
X124300000Y-100675000D03*
X124300000Y-101325000D03*
X124300000Y-101975000D03*
X127700000Y-101975000D03*
X127700000Y-101325000D03*
X127700000Y-100675000D03*
X127700000Y-100025000D03*
%TD*%
D16*
%TO.C,R33*%
X140587500Y-142500000D03*
X142412500Y-142500000D03*
%TD*%
D18*
%TO.C,C24*%
X260000000Y-32000000D03*
D19*
X267500000Y-32000000D03*
%TD*%
D12*
%TO.C,R1*%
X109000000Y-46912500D03*
X109000000Y-45087500D03*
%TD*%
D21*
%TO.C,C81*%
X176050000Y-188500000D03*
X177950000Y-188500000D03*
%TD*%
D20*
%TO.C,C22*%
X128525000Y-71000000D03*
X131475000Y-71000000D03*
%TD*%
D11*
%TO.C,J4*%
X275565000Y-85565000D03*
X275565000Y-90000000D03*
X275565000Y-94435000D03*
X280000000Y-85565000D03*
X280000000Y-90000000D03*
X280000000Y-94435000D03*
X284435000Y-85565000D03*
X284435000Y-90000000D03*
X284435000Y-94435000D03*
%TD*%
%TO.C,J1*%
X10565000Y-10565000D03*
X10565000Y-15000000D03*
X10565000Y-19435000D03*
X15000000Y-10565000D03*
X15000000Y-15000000D03*
X15000000Y-19435000D03*
X19435000Y-10565000D03*
X19435000Y-15000000D03*
X19435000Y-19435000D03*
%TD*%
D18*
%TO.C,C23*%
X237000000Y-32000000D03*
D19*
X244500000Y-32000000D03*
%TD*%
D41*
%TO.C,Y1*%
X203460000Y-174100000D03*
X208540000Y-174100000D03*
X208540000Y-169900000D03*
X203460000Y-169900000D03*
%TD*%
D17*
%TO.C,C65*%
X268500000Y-158450000D03*
X268500000Y-156550000D03*
%TD*%
D12*
%TO.C,R29*%
X128000000Y-151412500D03*
X128000000Y-149587500D03*
%TD*%
D20*
%TO.C,C36*%
X55025000Y-150500000D03*
X57975000Y-150500000D03*
%TD*%
D21*
%TO.C,C58*%
X224050000Y-106500000D03*
X225950000Y-106500000D03*
%TD*%
D12*
%TO.C,R36*%
X215000000Y-123412500D03*
X215000000Y-121587500D03*
%TD*%
D17*
%TO.C,C30*%
X114500000Y-49950000D03*
X114500000Y-48050000D03*
%TD*%
D24*
%TO.C,D7*%
X211550000Y-79937500D03*
X213450000Y-79937500D03*
X212500000Y-78062500D03*
%TD*%
D21*
%TO.C,C70*%
X127050000Y-94500000D03*
X128950000Y-94500000D03*
%TD*%
D39*
%TO.C,C32*%
X28000000Y-143975000D03*
X28000000Y-141025000D03*
%TD*%
D17*
%TO.C,C82*%
X180500000Y-189950000D03*
X180500000Y-188050000D03*
%TD*%
D42*
%TO.C,F1*%
X40000000Y-15000000D03*
X70000000Y-15000000D03*
%TD*%
D20*
%TO.C,C15*%
X107525000Y-31000000D03*
X110475000Y-31000000D03*
%TD*%
D21*
%TO.C,C80*%
X169050000Y-188500000D03*
X170950000Y-188500000D03*
%TD*%
D22*
%TO.C,U3*%
X79862500Y-142050000D03*
X79862500Y-143000000D03*
X79862500Y-143950000D03*
X82137500Y-143950000D03*
X82137500Y-143000000D03*
X82137500Y-142050000D03*
%TD*%
D23*
%TO.C,TP11*%
X219500000Y-183000000D03*
%TD*%
D24*
%TO.C,D4*%
X215550000Y-78437500D03*
X217450000Y-78437500D03*
X216500000Y-76562500D03*
%TD*%
D12*
%TO.C,R8*%
X137000000Y-63912500D03*
X137000000Y-62087500D03*
%TD*%
D23*
%TO.C,TP4*%
X80000000Y-183000000D03*
%TD*%
D18*
%TO.C,C1*%
X30000000Y-39000000D03*
D19*
X37500000Y-39000000D03*
%TD*%
D17*
%TO.C,C99*%
X162500000Y-174450000D03*
X162500000Y-172550000D03*
%TD*%
D40*
%TO.C,C47*%
X131800000Y-133500000D03*
X137200000Y-133500000D03*
%TD*%
D16*
%TO.C,R50*%
X263087500Y-151500000D03*
X264912500Y-151500000D03*
%TD*%
D21*
%TO.C,C53*%
X211550000Y-72500000D03*
X213450000Y-72500000D03*
%TD*%
D16*
%TO.C,R57*%
X207587500Y-167000000D03*
X209412500Y-167000000D03*
%TD*%
D12*
%TO.C,R52*%
X121500000Y-102412500D03*
X121500000Y-100587500D03*
%TD*%
D16*
%TO.C,R49*%
X275587500Y-152500000D03*
X277412500Y-152500000D03*
%TD*%
D33*
%TO.C,J7*%
X221000000Y-191000000D03*
D34*
X223540000Y-191000000D03*
X221000000Y-193540000D03*
X223540000Y-193540000D03*
X221000000Y-196080000D03*
X223540000Y-196080000D03*
X221000000Y-198620000D03*
X223540000Y-198620000D03*
X221000000Y-201160000D03*
X223540000Y-201160000D03*
X221000000Y-203700000D03*
X223540000Y-203700000D03*
X221000000Y-206240000D03*
X223540000Y-206240000D03*
%TD*%
D12*
%TO.C,R64*%
X211500000Y-177912500D03*
X211500000Y-176087500D03*
%TD*%
D25*
%TO.C,D8*%
X210562500Y-82550000D03*
X210562500Y-84450000D03*
X212437500Y-83500000D03*
%TD*%
D16*
%TO.C,R39*%
X215587500Y-128500000D03*
X217412500Y-128500000D03*
%TD*%
D21*
%TO.C,C50*%
X147050000Y-134500000D03*
X148950000Y-134500000D03*
%TD*%
D12*
%TO.C,R5*%
X109000000Y-59912500D03*
X109000000Y-58087500D03*
%TD*%
D17*
%TO.C,C72*%
X131500000Y-95450000D03*
X131500000Y-93550000D03*
%TD*%
D16*
%TO.C,R38*%
X219587500Y-130500000D03*
X221412500Y-130500000D03*
%TD*%
%TO.C,R41*%
X219587500Y-103000000D03*
X221412500Y-103000000D03*
%TD*%
D12*
%TO.C,R3*%
X135000000Y-46912500D03*
X135000000Y-45087500D03*
%TD*%
D43*
%TO.C,L2*%
X42750000Y-146000000D03*
X51250000Y-146000000D03*
%TD*%
D18*
%TO.C,C8*%
X93000000Y-60000000D03*
D19*
X100500000Y-60000000D03*
%TD*%
D21*
%TO.C,C104*%
X199050000Y-178500000D03*
X200950000Y-178500000D03*
%TD*%
D16*
%TO.C,R16*%
X35587500Y-152500000D03*
X37412500Y-152500000D03*
%TD*%
D12*
%TO.C,R7*%
X135000000Y-59912500D03*
X135000000Y-58087500D03*
%TD*%
D21*
%TO.C,C98*%
X172050000Y-154500000D03*
X173950000Y-154500000D03*
%TD*%
D16*
%TO.C,R59*%
X207087500Y-177000000D03*
X208912500Y-177000000D03*
%TD*%
D17*
%TO.C,C64*%
X250500000Y-158450000D03*
X250500000Y-156550000D03*
%TD*%
D12*
%TO.C,R32*%
X151000000Y-131912500D03*
X151000000Y-130087500D03*
%TD*%
D21*
%TO.C,C102*%
X176050000Y-191500000D03*
X177950000Y-191500000D03*
%TD*%
D33*
%TO.C,J9*%
X270000000Y-206000000D03*
D34*
X270000000Y-208540000D03*
X270000000Y-211080000D03*
%TD*%
D23*
%TO.C,TP3*%
X153000000Y-196000000D03*
%TD*%
D16*
%TO.C,R55*%
X123587500Y-87500000D03*
X125412500Y-87500000D03*
%TD*%
D39*
%TO.C,C43*%
X105000000Y-147475000D03*
X105000000Y-144525000D03*
%TD*%
D44*
%TO.C,L1*%
X148745000Y-45000000D03*
X181255000Y-45000000D03*
%TD*%
D16*
%TO.C,R20*%
X83087500Y-139500000D03*
X84912500Y-139500000D03*
%TD*%
D23*
%TO.C,TP7*%
X160000000Y-183000000D03*
%TD*%
D20*
%TO.C,C16*%
X114525000Y-31000000D03*
X117475000Y-31000000D03*
%TD*%
D17*
%TO.C,C89*%
X196500000Y-170450000D03*
X196500000Y-168550000D03*
%TD*%
D45*
%TO.C,C45*%
X102000000Y-152500000D03*
D46*
X104500000Y-152500000D03*
%TD*%
D23*
%TO.C,TP8*%
X264000000Y-183000000D03*
%TD*%
D16*
%TO.C,R42*%
X223087500Y-112000000D03*
X224912500Y-112000000D03*
%TD*%
D21*
%TO.C,C103*%
X199050000Y-181500000D03*
X200950000Y-181500000D03*
%TD*%
D17*
%TO.C,C90*%
X196500000Y-166450000D03*
X196500000Y-164550000D03*
%TD*%
D21*
%TO.C,C55*%
X216050000Y-126000000D03*
X217950000Y-126000000D03*
%TD*%
D17*
%TO.C,C29*%
X117500000Y-49950000D03*
X117500000Y-48050000D03*
%TD*%
D26*
%TO.C,U11*%
X271525000Y-155095000D03*
X271525000Y-156365000D03*
X271525000Y-157635000D03*
X271525000Y-158905000D03*
X276475000Y-158905000D03*
X276475000Y-157635000D03*
X276475000Y-156365000D03*
X276475000Y-155095000D03*
%TD*%
D17*
%TO.C,C79*%
X161500000Y-179450000D03*
X161500000Y-177550000D03*
%TD*%
D23*
%TO.C,TP9*%
X128000000Y-183000000D03*
%TD*%
D18*
%TO.C,C7*%
X72000000Y-60000000D03*
D19*
X79500000Y-60000000D03*
%TD*%
D33*
%TO.C,J5*%
X151000000Y-145000000D03*
D34*
X151000000Y-147540000D03*
%TD*%
D12*
%TO.C,R25*%
X119500000Y-139412500D03*
X119500000Y-137587500D03*
%TD*%
D21*
%TO.C,C84*%
X188550000Y-188500000D03*
X190450000Y-188500000D03*
%TD*%
D17*
%TO.C,C39*%
X85000000Y-143950000D03*
X85000000Y-142050000D03*
%TD*%
D18*
%TO.C,C5*%
X30000000Y-60000000D03*
D19*
X37500000Y-60000000D03*
%TD*%
D17*
%TO.C,C69*%
X130500000Y-91450000D03*
X130500000Y-89550000D03*
%TD*%
M02*
