%TF.GenerationSoftware,KiCad,Pcbnew,10.0.7*%
%TF.CreationDate,2026-10-09T12:39:54+08:00*%
%TF.ProjectId,AIPE_Buck_1kW,41495045-5f42-4756-936b-5f316b572e6b,V1*%
%TF.SameCoordinates,Original*%
%TF.FileFunction,Copper,L4,Inr*%
%TF.FilePolarity,Positive*%
%FSLAX46Y46*%
G04 Gerber Fmt 4.6, Leading zero omitted, Abs format (unit mm)*
G04 Created by KiCad (PCBNEW 10.0.7) date 2026-10-09 12:39:54*
%MOMM*%
%LPD*%
G01*
G04 APERTURE LIST*
G04 Aperture macros list*
%AMRoundRect*
0 Rectangle with rounded corners*
0 $1 Rounding radius*
0 $2 $3 $4 $5 $6 $7 $8 $9 X,Y pos of 4 corners*
0 Add a 4 corners polygon primitive as box body*
4,1,4,$2,$3,$4,$5,$6,$7,$8,$9,$2,$3,0*
0 Add four circle primitives for the rounded corners*
1,1,$1+$1,$2,$3*
1,1,$1+$1,$4,$5*
1,1,$1+$1,$6,$7*
1,1,$1+$1,$8,$9*
0 Add four rect primitives between the rounded corners*
20,1,$1+$1,$2,$3,$4,$5,0*
20,1,$1+$1,$4,$5,$6,$7,0*
20,1,$1+$1,$6,$7,$8,$9,0*
20,1,$1+$1,$8,$9,$2,$3,0*%
G04 Aperture macros list end*
%TA.AperFunction,ComponentPad*%
%ADD10C,3.200000*%
%TD*%
%TA.AperFunction,ComponentPad*%
%ADD11R,1.905000X2.000000*%
%TD*%
%TA.AperFunction,ComponentPad*%
%ADD12O,1.905000X2.000000*%
%TD*%
%TA.AperFunction,ComponentPad*%
%ADD13RoundRect,0.250001X-0.949999X-0.949999X0.949999X-0.949999X0.949999X0.949999X-0.949999X0.949999X0*%
%TD*%
%TA.AperFunction,ComponentPad*%
%ADD14C,2.400000*%
%TD*%
%TA.AperFunction,ComponentPad*%
%ADD15R,1.700000X1.700000*%
%TD*%
%TA.AperFunction,ComponentPad*%
%ADD16C,1.700000*%
%TD*%
%TA.AperFunction,ComponentPad*%
%ADD17C,12.000000*%
%TD*%
%TA.AperFunction,ComponentPad*%
%ADD18O,12.000000X7.000000*%
%TD*%
%TA.AperFunction,ComponentPad*%
%ADD19RoundRect,0.250000X-0.550000X-0.550000X0.550000X-0.550000X0.550000X0.550000X-0.550000X0.550000X0*%
%TD*%
%TA.AperFunction,ComponentPad*%
%ADD20C,1.600000*%
%TD*%
%TA.AperFunction,ViaPad*%
%ADD21C,0.600000*%
%TD*%
%TA.AperFunction,ViaPad*%
%ADD22C,1.000000*%
%TD*%
%TA.AperFunction,Conductor*%
%ADD23C,0.200000*%
%TD*%
G04 APERTURE END LIST*
D10*
%TO.N,VOUT*%
%TO.C,J3*%
X275565000Y-35565000D03*
X275565000Y-40000000D03*
X275565000Y-44435000D03*
X280000000Y-35565000D03*
X280000000Y-40000000D03*
X280000000Y-44435000D03*
X284435000Y-35565000D03*
X284435000Y-40000000D03*
X284435000Y-44435000D03*
%TD*%
D11*
%TO.N,GH1*%
%TO.C,Q1*%
X112000000Y-42000000D03*
D12*
%TO.N,VIN*%
X114540000Y-42000000D03*
%TO.N,SW*%
X117080000Y-42000000D03*
%TD*%
D13*
%TO.N,VIN*%
%TO.C,C3*%
X72000000Y-39000000D03*
D14*
%TO.N,GND*%
X79500000Y-39000000D03*
%TD*%
D13*
%TO.N,VIN*%
%TO.C,C6*%
X51000000Y-60000000D03*
D14*
%TO.N,GND*%
X58500000Y-60000000D03*
%TD*%
D13*
%TO.N,VOUT*%
%TO.C,C26*%
X260000000Y-57000000D03*
D14*
%TO.N,GND*%
X267500000Y-57000000D03*
%TD*%
D13*
%TO.N,VIN*%
%TO.C,C4*%
X93000000Y-39000000D03*
D14*
%TO.N,GND*%
X100500000Y-39000000D03*
%TD*%
D13*
%TO.N,VIN*%
%TO.C,C11*%
X72000000Y-81000000D03*
D14*
%TO.N,GND*%
X79500000Y-81000000D03*
%TD*%
D13*
%TO.N,VIN*%
%TO.C,C10*%
X51000000Y-81000000D03*
D14*
%TO.N,GND*%
X58500000Y-81000000D03*
%TD*%
D10*
%TO.N,GND*%
%TO.C,J2*%
X7565000Y-99565000D03*
X7565000Y-104000000D03*
X7565000Y-108435000D03*
X12000000Y-99565000D03*
X12000000Y-104000000D03*
X12000000Y-108435000D03*
X16435000Y-99565000D03*
X16435000Y-104000000D03*
X16435000Y-108435000D03*
%TD*%
D13*
%TO.N,VIN*%
%TO.C,C9*%
X30000000Y-81000000D03*
D14*
%TO.N,GND*%
X37500000Y-81000000D03*
%TD*%
D11*
%TO.N,GL1*%
%TO.C,Q3*%
X112000000Y-55000000D03*
D12*
%TO.N,SW*%
X114540000Y-55000000D03*
%TO.N,GND*%
X117080000Y-55000000D03*
%TD*%
D11*
%TO.N,GL2*%
%TO.C,Q4*%
X126000000Y-55000000D03*
D12*
%TO.N,SW*%
X128540000Y-55000000D03*
%TO.N,GND*%
X131080000Y-55000000D03*
%TD*%
D13*
%TO.N,VIN*%
%TO.C,C12*%
X93000000Y-81000000D03*
D14*
%TO.N,GND*%
X100500000Y-81000000D03*
%TD*%
D13*
%TO.N,VIN*%
%TO.C,C13*%
X30000000Y-102000000D03*
D14*
%TO.N,GND*%
X37500000Y-102000000D03*
%TD*%
D15*
%TO.N,GND*%
%TO.C,J8*%
X240000000Y-206000000D03*
D16*
%TO.N,BOOT84*%
X240000000Y-208540000D03*
%TO.N,3V3*%
X240000000Y-211080000D03*
%TD*%
D15*
%TO.N,FAULT_N*%
%TO.C,J6*%
X275000000Y-140000000D03*
D16*
%TO.N,GND*%
X275000000Y-142540000D03*
%TD*%
D11*
%TO.N,GH2*%
%TO.C,Q2*%
X126000000Y-42000000D03*
D12*
%TO.N,VIN*%
X128540000Y-42000000D03*
%TO.N,SW*%
X131080000Y-42000000D03*
%TD*%
D13*
%TO.N,VIN*%
%TO.C,C2*%
X51000000Y-39000000D03*
D14*
%TO.N,GND*%
X58500000Y-39000000D03*
%TD*%
D13*
%TO.N,VIN*%
%TO.C,C14*%
X51000000Y-102000000D03*
D14*
%TO.N,GND*%
X58500000Y-102000000D03*
%TD*%
D13*
%TO.N,VOUT*%
%TO.C,C25*%
X237000000Y-57000000D03*
D14*
%TO.N,GND*%
X244500000Y-57000000D03*
%TD*%
D13*
%TO.N,VOUT*%
%TO.C,C24*%
X260000000Y-32000000D03*
D14*
%TO.N,GND*%
X267500000Y-32000000D03*
%TD*%
D10*
%TO.N,GND*%
%TO.C,J4*%
X275565000Y-85565000D03*
X275565000Y-90000000D03*
X275565000Y-94435000D03*
X280000000Y-85565000D03*
X280000000Y-90000000D03*
X280000000Y-94435000D03*
X284435000Y-85565000D03*
X284435000Y-90000000D03*
X284435000Y-94435000D03*
%TD*%
%TO.N,VIN_RAW*%
%TO.C,J1*%
X10565000Y-10565000D03*
X10565000Y-15000000D03*
X10565000Y-19435000D03*
X15000000Y-10565000D03*
X15000000Y-15000000D03*
X15000000Y-19435000D03*
X19435000Y-10565000D03*
X19435000Y-15000000D03*
X19435000Y-19435000D03*
%TD*%
D13*
%TO.N,VOUT*%
%TO.C,C23*%
X237000000Y-32000000D03*
D14*
%TO.N,GND*%
X244500000Y-32000000D03*
%TD*%
D17*
%TO.N,VIN_RAW*%
%TO.C,F1*%
X40000000Y-15000000D03*
%TO.N,VIN*%
X70000000Y-15000000D03*
%TD*%
D13*
%TO.N,VIN*%
%TO.C,C1*%
X30000000Y-39000000D03*
D14*
%TO.N,GND*%
X37500000Y-39000000D03*
%TD*%
D15*
%TO.N,TMS*%
%TO.C,J7*%
X221000000Y-191000000D03*
D16*
%TO.N,TRST*%
X223540000Y-191000000D03*
%TO.N,TDI*%
X221000000Y-193540000D03*
%TO.N,GND*%
X223540000Y-193540000D03*
%TO.N,3V3*%
X221000000Y-196080000D03*
%TO.N,unconnected-(J7-Pad6)*%
X223540000Y-196080000D03*
%TO.N,TDO*%
X221000000Y-198620000D03*
%TO.N,GND*%
X223540000Y-198620000D03*
%TO.N,TCK*%
X221000000Y-201160000D03*
%TO.N,GND*%
X223540000Y-201160000D03*
%TO.N,TCK*%
X221000000Y-203700000D03*
%TO.N,GND*%
X223540000Y-203700000D03*
%TO.N,EMU0*%
X221000000Y-206240000D03*
%TO.N,EMU1*%
X223540000Y-206240000D03*
%TD*%
D13*
%TO.N,VIN*%
%TO.C,C8*%
X93000000Y-60000000D03*
D14*
%TO.N,GND*%
X100500000Y-60000000D03*
%TD*%
D15*
%TO.N,UART_TX*%
%TO.C,J9*%
X270000000Y-206000000D03*
D16*
%TO.N,UART_RX*%
X270000000Y-208540000D03*
%TO.N,GND*%
X270000000Y-211080000D03*
%TD*%
D18*
%TO.N,SW*%
%TO.C,L1*%
X148745000Y-45000000D03*
%TO.N,IL_FORCE*%
X181255000Y-45000000D03*
%TD*%
D19*
%TO.N,5V*%
%TO.C,C45*%
X102000000Y-152500000D03*
D20*
%TO.N,GND*%
X104500000Y-152500000D03*
%TD*%
D13*
%TO.N,VIN*%
%TO.C,C7*%
X72000000Y-60000000D03*
D14*
%TO.N,GND*%
X79500000Y-60000000D03*
%TD*%
D15*
%TO.N,XRS_N*%
%TO.C,J5*%
X151000000Y-145000000D03*
D16*
%TO.N,GND*%
X151000000Y-147540000D03*
%TD*%
D13*
%TO.N,VIN*%
%TO.C,C5*%
X30000000Y-60000000D03*
D14*
%TO.N,GND*%
X37500000Y-60000000D03*
%TD*%
D21*
%TO.N,SW5*%
X78500000Y-143000000D03*
X86750000Y-146000000D03*
X85000000Y-141000000D03*
%TO.N,5V*%
X123500000Y-148000000D03*
X120000000Y-133500000D03*
X120750000Y-146250000D03*
X278000000Y-155000000D03*
X115250000Y-146500000D03*
X122250000Y-148000000D03*
X261500000Y-157000000D03*
X118500000Y-140500000D03*
X264500000Y-157000000D03*
X123750000Y-183000000D03*
X119500000Y-144500000D03*
X120750000Y-142000000D03*
X260000000Y-155000000D03*
X99250000Y-146000000D03*
X101000000Y-148750000D03*
X84000000Y-149000000D03*
X105000000Y-148750000D03*
X117000000Y-144500000D03*
X82000000Y-150500000D03*
D22*
%TO.N,VOUT*%
X215500000Y-48500000D03*
D21*
X218500000Y-130500000D03*
D22*
X215500000Y-44000000D03*
D21*
X89750000Y-115000000D03*
X205000000Y-45750000D03*
D22*
X218500000Y-44000000D03*
X217000000Y-47000000D03*
X215500000Y-39500000D03*
X214000000Y-48500000D03*
X218500000Y-41000000D03*
D21*
X214750000Y-45750000D03*
D22*
X218500000Y-45500000D03*
D21*
X277250000Y-44500000D03*
D22*
X215500000Y-41000000D03*
X214000000Y-44000000D03*
D21*
X277250000Y-183000000D03*
D22*
X218500000Y-39500000D03*
X217000000Y-41000000D03*
X218500000Y-50000000D03*
X217000000Y-48500000D03*
X218500000Y-42500000D03*
X214000000Y-50000000D03*
X214000000Y-42500000D03*
X217000000Y-42500000D03*
X218500000Y-48500000D03*
X214000000Y-41000000D03*
X215500000Y-45500000D03*
X217000000Y-39500000D03*
X215500000Y-50000000D03*
X215500000Y-47000000D03*
X214000000Y-45500000D03*
D21*
X213000000Y-45750000D03*
D22*
X214000000Y-47000000D03*
X217000000Y-50000000D03*
X218500000Y-47000000D03*
X217000000Y-45500000D03*
X217000000Y-44000000D03*
X215500000Y-42500000D03*
X214000000Y-39500000D03*
D21*
%TO.N,IO_EN_N*%
X124250000Y-150500000D03*
X117000000Y-140500000D03*
X120750000Y-145000000D03*
%TO.N,VIN*%
X120250000Y-31000000D03*
X127250000Y-71000000D03*
X52750000Y-102000000D03*
X46750000Y-115000000D03*
X28000000Y-145250000D03*
X28750000Y-148000000D03*
X215000000Y-124500000D03*
X127250000Y-31000000D03*
X113250000Y-71000000D03*
X78750000Y-15000000D03*
X30000000Y-142250000D03*
X106250000Y-31000000D03*
X130250000Y-71000000D03*
X106250000Y-71000000D03*
X52750000Y-183000000D03*
X120250000Y-71000000D03*
X28750000Y-102000000D03*
X113250000Y-31000000D03*
X30000000Y-143750000D03*
%TO.N,SW*%
X118000000Y-47000000D03*
X137000000Y-48000000D03*
X130000000Y-43500000D03*
X134000000Y-41000000D03*
X120000000Y-54000000D03*
X107500000Y-48000000D03*
X114500000Y-47000000D03*
X117000000Y-47000000D03*
X119000000Y-50000000D03*
%TO.N,GND*%
X173500000Y-186250000D03*
X140500000Y-90000000D03*
X140500000Y-98000000D03*
X125650000Y-143650000D03*
X126500000Y-87500000D03*
X33350000Y-142350000D03*
X270000000Y-159000000D03*
X192250000Y-168250000D03*
X131000000Y-50000000D03*
X221500000Y-104500000D03*
X192250000Y-169250000D03*
X173750000Y-184250000D03*
X161500000Y-176500000D03*
X124350000Y-143650000D03*
X139500000Y-141500000D03*
X177750000Y-184250000D03*
X175250000Y-161750000D03*
X184750000Y-159000000D03*
X105000000Y-143250000D03*
X165500000Y-161500000D03*
X122750000Y-102000000D03*
X179000000Y-188500000D03*
X186500000Y-156500000D03*
X33500000Y-138500000D03*
X192250000Y-175250000D03*
X154750000Y-196000000D03*
X182500000Y-156500000D03*
X180500000Y-187000000D03*
X131500000Y-92500000D03*
X202000000Y-184000000D03*
X101000000Y-143250000D03*
X165500000Y-171500000D03*
X132750000Y-31000000D03*
X255500000Y-161500000D03*
X78500000Y-142000000D03*
X125650000Y-141050000D03*
X30000000Y-141000000D03*
X172250000Y-187000000D03*
X167000000Y-178250000D03*
X218000000Y-69500000D03*
X131000000Y-47500000D03*
X122350000Y-47450000D03*
X219000000Y-119000000D03*
X119000000Y-45000000D03*
X214000000Y-67250000D03*
X167750000Y-178000000D03*
X227000000Y-124000000D03*
X174500000Y-156500000D03*
X190500000Y-157500000D03*
X124350000Y-141050000D03*
X111750000Y-31000000D03*
X247500000Y-136000000D03*
X169750000Y-165750000D03*
X130500000Y-88500000D03*
X170750000Y-184250000D03*
X123750000Y-78000000D03*
X139500000Y-133500000D03*
X279500000Y-155500000D03*
X186250000Y-161750000D03*
X206000000Y-67250000D03*
X174750000Y-184250000D03*
X196500000Y-179500000D03*
X136000000Y-86500000D03*
X184500000Y-187000000D03*
X172750000Y-184250000D03*
X122250000Y-138000000D03*
X169750000Y-172750000D03*
X169750000Y-179750000D03*
X119500000Y-140500000D03*
X253250000Y-139000000D03*
X180750000Y-159000000D03*
X33350000Y-143650000D03*
X192250000Y-176250000D03*
X202000000Y-178500000D03*
X123650000Y-47450000D03*
X189250000Y-187000000D03*
X34650000Y-143650000D03*
X192250000Y-182250000D03*
X169750000Y-183750000D03*
X124350000Y-144950000D03*
X133500000Y-88500000D03*
X86000000Y-139500000D03*
X55250000Y-115000000D03*
X132750000Y-71000000D03*
X227000000Y-189000000D03*
X150000000Y-134500000D03*
X182750000Y-184250000D03*
X107500000Y-61000000D03*
X118750000Y-71000000D03*
X210000000Y-174000000D03*
X191500000Y-188500000D03*
X252000000Y-159000000D03*
X273500000Y-161500000D03*
X218500000Y-128500000D03*
X192250000Y-174250000D03*
X162500000Y-171500000D03*
X130250000Y-62000000D03*
X130000000Y-94500000D03*
X144500000Y-131000000D03*
X174250000Y-187000000D03*
X137000000Y-61000000D03*
X82750000Y-147000000D03*
X151000000Y-129000000D03*
X34250000Y-148000000D03*
X34000000Y-143000000D03*
X125500000Y-135000000D03*
X167750000Y-180000000D03*
X254500000Y-138000000D03*
X120750000Y-144000000D03*
X217500000Y-199500000D03*
X202000000Y-181500000D03*
X169750000Y-168750000D03*
X227000000Y-109500000D03*
X188250000Y-161750000D03*
X167000000Y-179250000D03*
X196500000Y-163500000D03*
X169750000Y-180750000D03*
X227000000Y-103500000D03*
X196500000Y-167500000D03*
X178500000Y-156500000D03*
X167000000Y-163250000D03*
X125750000Y-71000000D03*
X172750000Y-159000000D03*
X38500000Y-152500000D03*
X195000000Y-176750000D03*
X250500000Y-155500000D03*
X199500000Y-163000000D03*
X278500000Y-152500000D03*
X120750000Y-140750000D03*
X167000000Y-183250000D03*
X123000000Y-48000000D03*
X122750000Y-92000000D03*
X178250000Y-161750000D03*
X125650000Y-142350000D03*
X56000000Y-143250000D03*
X206000000Y-177000000D03*
X195000000Y-165750000D03*
X171750000Y-184250000D03*
X120750000Y-147500000D03*
X139000000Y-92000000D03*
X89250000Y-15000000D03*
X121000000Y-152500000D03*
X206000000Y-68750000D03*
X59250000Y-150500000D03*
X167000000Y-180250000D03*
X124350000Y-142350000D03*
X28000000Y-139750000D03*
X268500000Y-155500000D03*
X82000000Y-149500000D03*
X34650000Y-142350000D03*
X227000000Y-106500000D03*
X167000000Y-167500000D03*
X118750000Y-31000000D03*
X167000000Y-170500000D03*
X123650000Y-48750000D03*
X125750000Y-31000000D03*
X128000000Y-130000000D03*
X169750000Y-176750000D03*
X118500000Y-148500000D03*
X217500000Y-120500000D03*
X219000000Y-126500000D03*
X179000000Y-191500000D03*
X171250000Y-187000000D03*
X214500000Y-72500000D03*
X214500000Y-75500000D03*
X113750000Y-78000000D03*
X98250000Y-115000000D03*
X176750000Y-184250000D03*
X173250000Y-187000000D03*
X261500000Y-153000000D03*
X111750000Y-71000000D03*
X169750000Y-177750000D03*
X127000000Y-47500000D03*
X125000000Y-143000000D03*
X210500000Y-81500000D03*
X218500000Y-77500000D03*
X122350000Y-48750000D03*
X264500000Y-153000000D03*
X161500000Y-167500000D03*
X187000000Y-154500000D03*
X206000000Y-78500000D03*
X199500000Y-171500000D03*
X196500000Y-175500000D03*
X172000000Y-188500000D03*
X175000000Y-154500000D03*
X125650000Y-144950000D03*
X214500000Y-78500000D03*
X196500000Y-171500000D03*
%TO.N,PWM_L*%
X140500000Y-89000000D03*
X135000000Y-92000000D03*
X169750000Y-164750000D03*
X129250000Y-102000000D03*
X135000000Y-94250000D03*
X170500000Y-164750000D03*
X169750000Y-103250000D03*
%TO.N,3V3*%
X144500000Y-132000000D03*
X210500000Y-75500000D03*
X206000000Y-176000000D03*
X202000000Y-185000000D03*
X170250000Y-187000000D03*
X131500000Y-96500000D03*
X169750000Y-178750000D03*
X161500000Y-180500000D03*
X149500000Y-130000000D03*
X176250000Y-157500000D03*
X122250000Y-90750000D03*
X195000000Y-174750000D03*
X196500000Y-183500000D03*
X145500000Y-96000000D03*
X212500000Y-76750000D03*
X126000000Y-94500000D03*
X197500000Y-167500000D03*
X202000000Y-174000000D03*
X167000000Y-166250000D03*
X206000000Y-181000000D03*
X213750000Y-125250000D03*
X216500000Y-70750000D03*
X173250000Y-161750000D03*
X129250000Y-89500000D03*
X211500000Y-179000000D03*
X139500000Y-154500000D03*
X178750000Y-159000000D03*
X213250000Y-69000000D03*
X168000000Y-188500000D03*
X197500000Y-175500000D03*
X141000000Y-135000000D03*
X145500000Y-88000000D03*
X210500000Y-71500000D03*
X208500000Y-73750000D03*
X193250000Y-187750000D03*
X173500000Y-191000000D03*
X130500000Y-90750000D03*
X250000000Y-137000000D03*
X127000000Y-60000000D03*
X183500000Y-191000000D03*
X133500000Y-92500000D03*
X196500000Y-181750000D03*
X189750000Y-184250000D03*
X129250000Y-99500000D03*
X262000000Y-151500000D03*
X220500000Y-69750000D03*
X168000000Y-184500000D03*
X186750000Y-159000000D03*
X202000000Y-179500000D03*
X163000000Y-167000000D03*
X166750000Y-184500000D03*
X247500000Y-140000000D03*
X213750000Y-179000000D03*
X201500000Y-187000000D03*
X187500000Y-188500000D03*
X206000000Y-183500000D03*
X171000000Y-154500000D03*
X195000000Y-167750000D03*
X182500000Y-157500000D03*
X202000000Y-170000000D03*
X175000000Y-191500000D03*
X219000000Y-124000000D03*
X214000000Y-68750000D03*
X128000000Y-134000000D03*
X213000000Y-123750000D03*
X127750000Y-148000000D03*
X202000000Y-182500000D03*
X34500000Y-136000000D03*
X139500000Y-142500000D03*
X130500000Y-92500000D03*
X129250000Y-145250000D03*
X202000000Y-177000000D03*
X206000000Y-178500000D03*
X174500000Y-157500000D03*
X183250000Y-187000000D03*
X195000000Y-181750000D03*
%TO.N,ISENSE_P*%
X201000000Y-41750000D03*
X204500000Y-72000000D03*
X203750000Y-41750000D03*
%TO.N,ISENSE_P_F*%
X206000000Y-72500000D03*
X205250000Y-68000000D03*
X214000000Y-66000000D03*
X204500000Y-68000000D03*
%TO.N,BST12*%
X34500000Y-138500000D03*
X38000000Y-142250000D03*
%TO.N,SW12*%
X38000000Y-141000000D03*
X40000000Y-146000000D03*
X37750000Y-138000000D03*
X38500000Y-138500000D03*
%TO.N,1V9*%
X165500000Y-175500000D03*
X161750000Y-183000000D03*
X125500000Y-136000000D03*
X178250000Y-187000000D03*
X167000000Y-173250000D03*
X128000000Y-157500000D03*
X199500000Y-167000000D03*
X181250000Y-161750000D03*
X177250000Y-187000000D03*
X162500000Y-175500000D03*
X161500000Y-171500000D03*
X180500000Y-191000000D03*
X169750000Y-163750000D03*
X178500000Y-157500000D03*
X163000000Y-177000000D03*
X188750000Y-159000000D03*
X128000000Y-152500000D03*
X179500000Y-187000000D03*
X165500000Y-165500000D03*
X167000000Y-177250000D03*
X195500000Y-171500000D03*
X195000000Y-169750000D03*
X167000000Y-176250000D03*
X163000000Y-170000000D03*
X192250000Y-165250000D03*
X167000000Y-169250000D03*
X175000000Y-188500000D03*
X186500000Y-157500000D03*
X163000000Y-180000000D03*
X170500000Y-157500000D03*
X174750000Y-159000000D03*
X129250000Y-141500000D03*
X195000000Y-177750000D03*
X185250000Y-161750000D03*
X195000000Y-173750000D03*
X195500000Y-179500000D03*
X183000000Y-154500000D03*
X199500000Y-173750000D03*
X199500000Y-175500000D03*
%TO.N,OCP_REF*%
X250500000Y-159500000D03*
X255500000Y-157750000D03*
X251500000Y-161500000D03*
X255500000Y-152500000D03*
X252000000Y-157750000D03*
%TO.N,PWM_H*%
X140500000Y-88000000D03*
X132750000Y-94000000D03*
X167000000Y-164250000D03*
X136000000Y-90500000D03*
X122750000Y-100000000D03*
%TO.N,PWM_EXCLUSIVE*%
X145500000Y-90000000D03*
X140500000Y-97000000D03*
%TO.N,HI_LOGIC*%
X130500000Y-100750000D03*
X130500000Y-102500000D03*
%TO.N,HI*%
X127000000Y-50000000D03*
X125000000Y-50000000D03*
X124500000Y-98500000D03*
X130500000Y-98500000D03*
%TO.N,BOOT87*%
X171250000Y-161750000D03*
X204500000Y-175750000D03*
X210000000Y-179500000D03*
X208250000Y-179500000D03*
%TO.N,FB5*%
X86000000Y-150500000D03*
X84000000Y-145000000D03*
X84750000Y-150500000D03*
X78000000Y-150500000D03*
X83500000Y-144000000D03*
%TO.N,ADC_TEMP*%
X222000000Y-110000000D03*
X167000000Y-181250000D03*
X206500000Y-77000000D03*
X217500000Y-80750000D03*
X221500000Y-108500000D03*
X209250000Y-80500000D03*
%TO.N,REF2V5*%
X260000000Y-159000000D03*
X254500000Y-142000000D03*
X251500000Y-152500000D03*
X256500000Y-150000000D03*
X256000000Y-151500000D03*
X258500000Y-159000000D03*
X250000000Y-141000000D03*
%TO.N,FAULT_N*%
X166250000Y-91250000D03*
X260000000Y-156250000D03*
X263500000Y-183000000D03*
X192000000Y-156000000D03*
X263500000Y-157000000D03*
X167000000Y-172250000D03*
X276500000Y-140000000D03*
X270000000Y-155000000D03*
X266000000Y-151500000D03*
X278000000Y-156250000D03*
X266000000Y-155500000D03*
X266000000Y-154000000D03*
X276500000Y-156000000D03*
X191500000Y-172000000D03*
X265750000Y-183000000D03*
X252000000Y-155000000D03*
X129250000Y-90750000D03*
%TO.N,CURRENT_RAW*%
X217500000Y-71500000D03*
X227000000Y-125250000D03*
X252000000Y-156250000D03*
X227000000Y-156250000D03*
X214000000Y-70000000D03*
%TO.N,VOUT_DIV*%
X260000000Y-157750000D03*
X222500000Y-130500000D03*
X219000000Y-125250000D03*
X214500000Y-128500000D03*
X220500000Y-131750000D03*
X215000000Y-126000000D03*
%TO.N,AUX12*%
X78500000Y-144000000D03*
X54000000Y-146000000D03*
X115000000Y-45500000D03*
X35500000Y-150000000D03*
X118250000Y-78000000D03*
X77250000Y-147000000D03*
X81750000Y-183000000D03*
X119000000Y-46250000D03*
X74500000Y-143500000D03*
X108250000Y-78000000D03*
X53750000Y-150500000D03*
X56000000Y-148750000D03*
X59500000Y-144500000D03*
X80250000Y-147000000D03*
X81250000Y-78000000D03*
X78000000Y-139500000D03*
%TO.N,HO*%
X135000000Y-47000000D03*
X109000000Y-47000000D03*
X120500000Y-48500000D03*
%TO.N,LI*%
X121500000Y-51750000D03*
X127000000Y-48750000D03*
X127000000Y-46500000D03*
X121500000Y-98750000D03*
%TO.N,LO*%
X135000000Y-52750000D03*
X135000000Y-60000000D03*
%TO.N,ADC_VIN*%
X217250000Y-187500000D03*
X169750000Y-182750000D03*
X217500000Y-104500000D03*
X214500000Y-74000000D03*
X192500000Y-186250000D03*
X182000000Y-182750000D03*
X220000000Y-104500000D03*
X216500000Y-75250000D03*
X219000000Y-104500000D03*
X223000000Y-106500000D03*
%TO.N,ADC_VOUT*%
X222500000Y-103000000D03*
X220500000Y-74250000D03*
X221250000Y-183000000D03*
X218500000Y-73000000D03*
X167000000Y-182250000D03*
X223000000Y-103500000D03*
%TO.N,ISENSE_N_F*%
X206000000Y-66000000D03*
X203500000Y-72000000D03*
X210000000Y-72500000D03*
%TO.N,XRS_N*%
X184000000Y-145000000D03*
X268000000Y-150750000D03*
X143500000Y-130000000D03*
X189500000Y-153250000D03*
X261250000Y-152000000D03*
X144500000Y-130000000D03*
X139500000Y-140000000D03*
X187750000Y-184250000D03*
X132500000Y-140000000D03*
X143500000Y-142500000D03*
X129250000Y-142750000D03*
%TO.N,RESET_CT*%
X149500000Y-132000000D03*
X146000000Y-134500000D03*
%TO.N,MON5*%
X151000000Y-133000000D03*
X124000000Y-133500000D03*
X149500000Y-131000000D03*
X149750000Y-133000000D03*
%TO.N,VIN_BUF*%
X219000000Y-108500000D03*
X220500000Y-120500000D03*
X220500000Y-119250000D03*
%TO.N,UVLO_REF*%
X274500000Y-152500000D03*
X260500000Y-150000000D03*
X279500000Y-159500000D03*
X278000000Y-157750000D03*
%TO.N,RON12*%
X29500000Y-138500000D03*
X30000000Y-145000000D03*
%TO.N,PG12_N*%
X38500000Y-136000000D03*
X267250000Y-159000000D03*
X38000000Y-143750000D03*
X213000000Y-157000000D03*
X54000000Y-143750000D03*
X123000000Y-155250000D03*
X170500000Y-155250000D03*
%TO.N,ISENSE_N*%
X206750000Y-41750000D03*
X206500000Y-76000000D03*
X213000000Y-41750000D03*
X204500000Y-76000000D03*
%TO.N,VIN_DIV*%
X219000000Y-122750000D03*
X217500000Y-124500000D03*
X215000000Y-120500000D03*
X218000000Y-132500000D03*
X273250000Y-159000000D03*
X215000000Y-119000000D03*
X278000000Y-159000000D03*
%TO.N,VOUT_BUF*%
X218500000Y-103000000D03*
X220500000Y-127500000D03*
X220500000Y-128750000D03*
%TO.N,CURRENT_BUF*%
X222000000Y-112000000D03*
X225500000Y-128750000D03*
X225500000Y-127500000D03*
%TO.N,TEMP_RAW*%
X270000000Y-156250000D03*
X216500000Y-64000000D03*
X227000000Y-122750000D03*
X127000000Y-64000000D03*
%TO.N,TEMP_BUF*%
X225500000Y-120500000D03*
X218000000Y-110000000D03*
X225500000Y-119250000D03*
%TO.N,UART_RX*%
X187750000Y-159000000D03*
X211500000Y-181250000D03*
X205500000Y-187000000D03*
X218500000Y-193000000D03*
X211500000Y-187750000D03*
%TO.N,UART_TX*%
X169000000Y-189750000D03*
X169750000Y-162750000D03*
%TO.N,ARM*%
X122500000Y-87500000D03*
X122750000Y-90000000D03*
X167000000Y-165250000D03*
%TO.N,ADC_CURRENT*%
X226000000Y-112000000D03*
X223000000Y-109500000D03*
X213750000Y-83500000D03*
X214750000Y-183000000D03*
X184250000Y-181750000D03*
X210500000Y-80000000D03*
X212250000Y-83500000D03*
X169750000Y-181750000D03*
%TO.N,ADCREFM*%
X198000000Y-181500000D03*
X175250000Y-187000000D03*
%TO.N,ADCREFP*%
X175750000Y-184250000D03*
X198000000Y-178500000D03*
%TO.N,ADCBIAS*%
X176250000Y-187000000D03*
X198000000Y-184000000D03*
%TO.N,TDI*%
X210000000Y-184500000D03*
X216500000Y-184500000D03*
X185750000Y-184250000D03*
X208250000Y-184500000D03*
%TO.N,TDO*%
X186250000Y-187000000D03*
X186250000Y-198500000D03*
%TO.N,TRST*%
X191250000Y-182500000D03*
X209000000Y-187000000D03*
X227000000Y-193000000D03*
X186750000Y-184250000D03*
%TO.N,TMS*%
X210750000Y-185250000D03*
X211500000Y-175000000D03*
X187250000Y-187000000D03*
X210750000Y-175000000D03*
%TO.N,EMU0*%
X204750000Y-184500000D03*
X206250000Y-206250000D03*
X204750000Y-188250000D03*
X190250000Y-187000000D03*
X206000000Y-184500000D03*
%TO.N,EMU1*%
X210000000Y-182000000D03*
X215750000Y-182000000D03*
%TO.N,TCK*%
X200500000Y-187000000D03*
X217500000Y-203500000D03*
X191250000Y-187000000D03*
X200500000Y-203500000D03*
%TO.N,CLK30*%
X210500000Y-167000000D03*
X195000000Y-175750000D03*
%TO.N,BOOT84*%
X223000000Y-208250000D03*
X174000000Y-163750000D03*
X173750000Y-159000000D03*
X204500000Y-179500000D03*
X206000000Y-179500000D03*
X214000000Y-180250000D03*
%TO.N,BOOT85*%
X210000000Y-177000000D03*
X172250000Y-161750000D03*
%TO.N,BOOT86*%
X171750000Y-159000000D03*
X206000000Y-182000000D03*
X191250000Y-163250000D03*
%TO.N,ARMED*%
X129250000Y-92000000D03*
X129750000Y-183000000D03*
X140500000Y-96000000D03*
%TO.N,CORE_OK*%
X119500000Y-136500000D03*
X141500000Y-136750000D03*
X127750000Y-138000000D03*
X126500000Y-134750000D03*
X130500000Y-149500000D03*
%TO.N,SEQ_BASE*%
X118500000Y-152500000D03*
X121000000Y-148500000D03*
X130500000Y-145500000D03*
%TO.N,FB12*%
X38500000Y-147500000D03*
X38000000Y-145000000D03*
X34500000Y-152500000D03*
X39500000Y-150000000D03*
%TO.N,RIPPLE12*%
X42500000Y-138000000D03*
X34500000Y-147000000D03*
X59500000Y-148500000D03*
D22*
%TO.N,IL_FORCE*%
X199500000Y-48500000D03*
X196500000Y-47000000D03*
X198000000Y-39500000D03*
X199500000Y-41000000D03*
X199500000Y-45500000D03*
X196500000Y-41000000D03*
X196500000Y-39500000D03*
X195000000Y-50000000D03*
X196500000Y-42500000D03*
X195000000Y-44000000D03*
X195000000Y-47000000D03*
D21*
X201000000Y-45750000D03*
D22*
X196500000Y-48500000D03*
X198000000Y-45500000D03*
X196500000Y-44000000D03*
X199500000Y-47000000D03*
X198000000Y-44000000D03*
X196500000Y-45500000D03*
X195000000Y-41000000D03*
X199500000Y-42500000D03*
X195000000Y-45500000D03*
X199500000Y-44000000D03*
X199500000Y-39500000D03*
X198000000Y-47000000D03*
X198000000Y-41000000D03*
X198000000Y-48500000D03*
X196500000Y-50000000D03*
X198000000Y-50000000D03*
X198000000Y-42500000D03*
X195000000Y-39500000D03*
X199500000Y-50000000D03*
X195000000Y-48500000D03*
X195000000Y-42500000D03*
D21*
%TO.N,FB19*%
X129500000Y-136000000D03*
X121500000Y-136000000D03*
X129250000Y-140250000D03*
%TO.N,1V9_BULK*%
X128500000Y-148500000D03*
X126500000Y-139500000D03*
%TO.N,OTP_REF*%
X269500000Y-161500000D03*
X268500000Y-159500000D03*
X260000000Y-152500000D03*
X270000000Y-157750000D03*
%TO.N,EN5*%
X82000000Y-139500000D03*
X83500000Y-143000000D03*
%TO.N,GATE_OK*%
X122250000Y-99250000D03*
X129250000Y-100750000D03*
X145500000Y-98000000D03*
%TO.N,3V3_BULK*%
X129500000Y-133500000D03*
X141000000Y-131000000D03*
%TO.N,LI_LOGIC*%
X121500000Y-101750000D03*
X121500000Y-103500000D03*
%TO.N,CLK30_SOURCE*%
X210000000Y-170000000D03*
X208250000Y-167000000D03*
X206500000Y-167000000D03*
%TO.N,BST5*%
X85000000Y-145000000D03*
X83500000Y-142000000D03*
%TD*%
%TO.N,VIN*%
D23*
X28750000Y-102000000D02*
X28750000Y-148000000D01*
X52750000Y-102000000D02*
X52750000Y-183000000D01*
%TO.N,PWM_L*%
X170000000Y-158000000D02*
X169750000Y-158000000D01*
X169750000Y-158000000D02*
X169750000Y-103250000D01*
X170500000Y-164750000D02*
X170500000Y-158250000D01*
X170000000Y-158250000D02*
X170000000Y-158000000D01*
X170500000Y-158250000D02*
X170000000Y-158250000D01*
%TO.N,3V3*%
X202000000Y-185000000D02*
X202000000Y-187000000D01*
X190250000Y-185000000D02*
X190250000Y-184750000D01*
X193250000Y-187750000D02*
X193250000Y-185000000D01*
X213000000Y-123750000D02*
X213000000Y-76750000D01*
X168000000Y-184500000D02*
X168000000Y-188500000D01*
X193250000Y-185000000D02*
X190250000Y-185000000D01*
X213000000Y-76750000D02*
X212500000Y-76750000D01*
X196500000Y-183500000D02*
X196500000Y-181750000D01*
X213750000Y-179000000D02*
X213750000Y-125250000D01*
X190000000Y-184250000D02*
X189750000Y-184250000D01*
X190000000Y-184750000D02*
X190000000Y-184250000D01*
X202000000Y-187000000D02*
X201500000Y-187000000D01*
X190250000Y-184750000D02*
X190000000Y-184750000D01*
X139500000Y-154500000D02*
X139500000Y-142500000D01*
%TO.N,ISENSE_P*%
X204000000Y-68750000D02*
X204000000Y-68500000D01*
X204500000Y-72000000D02*
X204500000Y-68750000D01*
X203750000Y-68500000D02*
X203750000Y-41750000D01*
X204500000Y-68750000D02*
X204000000Y-68750000D01*
X204000000Y-68500000D02*
X203750000Y-68500000D01*
%TO.N,1V9*%
X128000000Y-157500000D02*
X128000000Y-152500000D01*
X199500000Y-173750000D02*
X199500000Y-175500000D01*
%TO.N,OCP_REF*%
X255500000Y-157750000D02*
X255500000Y-152500000D01*
%TO.N,HI*%
X124500000Y-53500000D02*
X124500000Y-98500000D01*
X125000000Y-53500000D02*
X124500000Y-53500000D01*
X125000000Y-50000000D02*
X125000000Y-53500000D01*
%TO.N,BOOT87*%
X206750000Y-179500000D02*
X208250000Y-179500000D01*
X204500000Y-175750000D02*
X204500000Y-177750000D01*
X206750000Y-178000000D02*
X206750000Y-179500000D01*
X204500000Y-177750000D02*
X206500000Y-177750000D01*
X206500000Y-178000000D02*
X206750000Y-178000000D01*
X206500000Y-177750000D02*
X206500000Y-178000000D01*
%TO.N,FB5*%
X84000000Y-145000000D02*
X84000000Y-148250000D01*
X84750000Y-148500000D02*
X84750000Y-150500000D01*
X84500000Y-148250000D02*
X84500000Y-148500000D01*
X84000000Y-148250000D02*
X84500000Y-148250000D01*
X84500000Y-148500000D02*
X84750000Y-148500000D01*
%TO.N,FAULT_N*%
X191750000Y-164000000D02*
X191750000Y-163750000D01*
X278000000Y-155750000D02*
X277500000Y-155750000D01*
X277000000Y-140000000D02*
X276500000Y-140000000D01*
X276500000Y-156000000D02*
X276500000Y-156250000D01*
X166250000Y-171000000D02*
X166250000Y-91250000D01*
X192000000Y-163750000D02*
X192000000Y-156000000D01*
X277250000Y-143500000D02*
X277000000Y-143500000D01*
X266000000Y-154000000D02*
X266000000Y-151500000D01*
X277500000Y-155750000D02*
X277500000Y-155500000D01*
X191750000Y-163750000D02*
X192000000Y-163750000D01*
X167000000Y-172250000D02*
X167000000Y-171250000D01*
X191500000Y-172000000D02*
X191500000Y-164000000D01*
X277250000Y-155500000D02*
X277250000Y-143500000D01*
X277000000Y-143500000D02*
X277000000Y-140000000D01*
X263500000Y-157000000D02*
X263500000Y-183000000D01*
X191500000Y-164000000D02*
X191750000Y-164000000D01*
X166500000Y-171000000D02*
X166250000Y-171000000D01*
X166500000Y-171250000D02*
X166500000Y-171000000D01*
X278000000Y-156250000D02*
X278000000Y-155750000D01*
X276500000Y-156250000D02*
X278000000Y-156250000D01*
X277500000Y-155500000D02*
X277250000Y-155500000D01*
X167000000Y-171250000D02*
X166500000Y-171250000D01*
%TO.N,CURRENT_RAW*%
X227000000Y-156250000D02*
X227000000Y-125250000D01*
%TO.N,AUX12*%
X119000000Y-49250000D02*
X118500000Y-49250000D01*
X118250000Y-53500000D02*
X118500000Y-53500000D01*
X118500000Y-58750000D02*
X118000000Y-58750000D01*
X118500000Y-49500000D02*
X118250000Y-49500000D01*
X118500000Y-53500000D02*
X118500000Y-58750000D01*
X118000000Y-58750000D02*
X118000000Y-78000000D01*
X118500000Y-49250000D02*
X118500000Y-49500000D01*
X119000000Y-46250000D02*
X119000000Y-49250000D01*
X118000000Y-78000000D02*
X118250000Y-78000000D01*
X118250000Y-49500000D02*
X118250000Y-53500000D01*
%TO.N,LI*%
X121500000Y-51750000D02*
X121500000Y-98750000D01*
%TO.N,ADC_VIN*%
X182000000Y-182750000D02*
X182000000Y-183000000D01*
X217500000Y-93000000D02*
X216750000Y-93000000D01*
X217250000Y-125250000D02*
X217000000Y-125250000D01*
X216750000Y-93000000D02*
X216750000Y-75250000D01*
X182000000Y-183000000D02*
X183500000Y-183000000D01*
X216750000Y-75250000D02*
X216500000Y-75250000D01*
X217000000Y-125000000D02*
X216750000Y-125000000D01*
X183500000Y-186250000D02*
X192500000Y-186250000D01*
X183500000Y-183000000D02*
X183500000Y-186250000D01*
X217500000Y-104500000D02*
X217500000Y-93000000D01*
X216750000Y-104500000D02*
X217500000Y-104500000D01*
X217000000Y-125250000D02*
X217000000Y-125000000D01*
X217250000Y-187500000D02*
X217250000Y-125250000D01*
X216750000Y-125000000D02*
X216750000Y-104500000D01*
%TO.N,ADC_VOUT*%
X221250000Y-183000000D02*
X221250000Y-109250000D01*
X222250000Y-109000000D02*
X222250000Y-103000000D01*
X221250000Y-109250000D02*
X222000000Y-109250000D01*
X222250000Y-103000000D02*
X222500000Y-103000000D01*
X222000000Y-109250000D02*
X222000000Y-109000000D01*
X222000000Y-109000000D02*
X222250000Y-109000000D01*
%TO.N,XRS_N*%
X184500000Y-159750000D02*
X184250000Y-159750000D01*
X184250000Y-159750000D02*
X184250000Y-159500000D01*
X184750000Y-175250000D02*
X184750000Y-162250000D01*
X187750000Y-184250000D02*
X187500000Y-184250000D01*
X143500000Y-142500000D02*
X143500000Y-130000000D01*
X189500000Y-159500000D02*
X189500000Y-153250000D01*
X185250000Y-185000000D02*
X185250000Y-184750000D01*
X185000000Y-184750000D02*
X185000000Y-175250000D01*
X189000000Y-179250000D02*
X189000000Y-159750000D01*
X185000000Y-184750000D02*
X185000000Y-179250000D01*
X187750000Y-185000000D02*
X185250000Y-185000000D01*
X184500000Y-162250000D02*
X184500000Y-159750000D01*
X184750000Y-162250000D02*
X184500000Y-162250000D01*
X189000000Y-159750000D02*
X189250000Y-159750000D01*
X185250000Y-185000000D02*
X185250000Y-184750000D01*
X187500000Y-184250000D02*
X187500000Y-184750000D01*
X187750000Y-184250000D02*
X187750000Y-185000000D01*
X184250000Y-159500000D02*
X184000000Y-159500000D01*
X185250000Y-184750000D02*
X185000000Y-184750000D01*
X185000000Y-179250000D02*
X189000000Y-179250000D01*
X187250000Y-185000000D02*
X185250000Y-185000000D01*
X184000000Y-159500000D02*
X184000000Y-145000000D01*
X185250000Y-184750000D02*
X185000000Y-184750000D01*
X189250000Y-159750000D02*
X189250000Y-159500000D01*
X185000000Y-175250000D02*
X184750000Y-175250000D01*
X187250000Y-184750000D02*
X187250000Y-185000000D01*
X189250000Y-159500000D02*
X189500000Y-159500000D01*
X187500000Y-184750000D02*
X187250000Y-184750000D01*
%TO.N,ISENSE_N*%
X206750000Y-73000000D02*
X206750000Y-41750000D01*
X206500000Y-73000000D02*
X206750000Y-73000000D01*
X206500000Y-76000000D02*
X206500000Y-73000000D01*
%TO.N,VIN_DIV*%
X218000000Y-131000000D02*
X217750000Y-131000000D01*
X217750000Y-131000000D02*
X217750000Y-124500000D01*
X217750000Y-124500000D02*
X217500000Y-124500000D01*
X218000000Y-132500000D02*
X218000000Y-131000000D01*
%TO.N,VOUT_BUF*%
X220000000Y-121250000D02*
X220000000Y-121000000D01*
X218750000Y-109250000D02*
X218500000Y-109250000D01*
X219750000Y-115750000D02*
X218750000Y-115750000D01*
X218500000Y-109000000D02*
X218250000Y-109000000D01*
X220000000Y-121000000D02*
X219750000Y-121000000D01*
X220500000Y-127500000D02*
X220500000Y-121250000D01*
X218500000Y-109250000D02*
X218500000Y-109000000D01*
X219750000Y-121000000D02*
X219750000Y-115750000D01*
X218250000Y-109000000D02*
X218250000Y-103000000D01*
X218250000Y-103000000D02*
X218500000Y-103000000D01*
X220500000Y-121250000D02*
X220000000Y-121250000D01*
X218750000Y-115750000D02*
X218750000Y-109250000D01*
%TO.N,UART_RX*%
X211500000Y-181250000D02*
X211500000Y-187750000D01*
%TO.N,UART_TX*%
X169750000Y-162750000D02*
X169750000Y-163000000D01*
X169750000Y-163000000D02*
X169250000Y-163000000D01*
X169250000Y-163250000D02*
X169000000Y-163250000D01*
X169250000Y-163000000D02*
X169250000Y-163250000D01*
X169000000Y-163250000D02*
X169000000Y-189750000D01*
%TO.N,TDI*%
X191500000Y-184250000D02*
X197250000Y-184250000D01*
X206750000Y-183000000D02*
X206750000Y-184500000D01*
X186250000Y-183750000D02*
X186250000Y-183500000D01*
X216500000Y-188750000D02*
X219250000Y-188750000D01*
X186250000Y-183500000D02*
X191250000Y-183500000D01*
X197500000Y-183250000D02*
X205250000Y-183250000D01*
X205500000Y-183000000D02*
X205500000Y-182750000D01*
X205250000Y-183250000D02*
X205250000Y-183000000D01*
X219250000Y-188750000D02*
X219250000Y-193500000D01*
X186000000Y-183750000D02*
X186250000Y-183750000D01*
X206500000Y-182750000D02*
X206500000Y-183000000D01*
X206750000Y-184500000D02*
X208250000Y-184500000D01*
X197500000Y-183500000D02*
X197500000Y-183250000D01*
X205250000Y-183000000D02*
X205500000Y-183000000D01*
X185750000Y-184250000D02*
X186000000Y-184250000D01*
X197250000Y-184250000D02*
X197250000Y-183500000D01*
X219250000Y-193500000D02*
X220500000Y-193500000D01*
X216500000Y-184500000D02*
X216500000Y-188750000D01*
X191250000Y-183750000D02*
X191500000Y-183750000D01*
X191500000Y-183750000D02*
X191500000Y-184250000D01*
X191250000Y-183500000D02*
X191250000Y-183750000D01*
X186000000Y-184250000D02*
X186000000Y-183750000D01*
X206500000Y-183000000D02*
X206750000Y-183000000D01*
X205500000Y-182750000D02*
X206500000Y-182750000D01*
X197250000Y-183500000D02*
X197500000Y-183500000D01*
%TO.N,TDO*%
X186250000Y-187000000D02*
X186250000Y-198500000D01*
%TO.N,TRST*%
X205250000Y-180500000D02*
X205500000Y-180500000D01*
X207000000Y-182500000D02*
X207250000Y-182500000D01*
X197500000Y-181000000D02*
X197500000Y-180750000D01*
X209000000Y-184000000D02*
X209000000Y-187000000D01*
X208750000Y-184000000D02*
X209000000Y-184000000D01*
X206750000Y-182250000D02*
X207000000Y-182250000D01*
X191250000Y-182500000D02*
X191500000Y-182500000D01*
X191500000Y-181750000D02*
X191750000Y-181750000D01*
X206750000Y-180500000D02*
X206750000Y-182250000D01*
X191500000Y-182500000D02*
X191500000Y-181750000D01*
X206500000Y-180250000D02*
X206500000Y-180500000D01*
X194500000Y-181250000D02*
X194500000Y-181000000D01*
X191750000Y-181500000D02*
X194250000Y-181500000D01*
X205500000Y-180250000D02*
X206500000Y-180250000D01*
X205500000Y-180500000D02*
X205500000Y-180250000D01*
X207250000Y-182500000D02*
X207250000Y-183750000D01*
X194250000Y-181250000D02*
X194500000Y-181250000D01*
X194250000Y-181500000D02*
X194250000Y-181250000D01*
X207000000Y-182250000D02*
X207000000Y-182500000D01*
X208750000Y-183750000D02*
X208750000Y-184000000D01*
X197500000Y-180750000D02*
X205250000Y-180750000D01*
X205250000Y-180750000D02*
X205250000Y-180500000D01*
X194500000Y-181000000D02*
X197500000Y-181000000D01*
X191750000Y-181750000D02*
X191750000Y-181500000D01*
X206500000Y-180500000D02*
X206750000Y-180500000D01*
X207250000Y-183750000D02*
X208750000Y-183750000D01*
%TO.N,TMS*%
X210750000Y-185250000D02*
X210750000Y-175000000D01*
%TO.N,EMU0*%
X206000000Y-186500000D02*
X206250000Y-186500000D01*
X204750000Y-188250000D02*
X204750000Y-184500000D01*
X206000000Y-184500000D02*
X206000000Y-186500000D01*
X206250000Y-186500000D02*
X206250000Y-206250000D01*
%TO.N,EMU1*%
X215750000Y-182000000D02*
X215750000Y-189250000D01*
X216500000Y-205000000D02*
X222250000Y-205000000D01*
X216500000Y-189250000D02*
X216500000Y-205000000D01*
X222250000Y-205000000D02*
X222250000Y-206250000D01*
X222250000Y-206250000D02*
X223000000Y-206250000D01*
X215750000Y-189250000D02*
X216500000Y-189250000D01*
%TO.N,TCK*%
X200500000Y-187000000D02*
X200500000Y-203500000D01*
%TO.N,BOOT84*%
X174000000Y-161250000D02*
X174000000Y-163750000D01*
X204500000Y-179500000D02*
X206000000Y-179500000D01*
X215250000Y-208250000D02*
X223000000Y-208250000D01*
X215250000Y-200000000D02*
X215250000Y-208250000D01*
X173750000Y-161250000D02*
X174000000Y-161250000D01*
X214000000Y-184500000D02*
X215000000Y-184500000D01*
X214000000Y-180250000D02*
X214000000Y-184500000D01*
X173750000Y-159000000D02*
X173750000Y-161250000D01*
X215000000Y-200000000D02*
X215250000Y-200000000D01*
X215000000Y-184500000D02*
X215000000Y-200000000D01*
%TO.N,ARMED*%
X128750000Y-129500000D02*
X128750000Y-139750000D01*
X128750000Y-139750000D02*
X128500000Y-139750000D01*
X129250000Y-92000000D02*
X129250000Y-93250000D01*
X129250000Y-98750000D02*
X128750000Y-98750000D01*
X133250000Y-93500000D02*
X140000000Y-93500000D01*
X129250000Y-148000000D02*
X129250000Y-183000000D01*
X133250000Y-93250000D02*
X133250000Y-93500000D01*
X129250000Y-93250000D02*
X133250000Y-93250000D01*
X129000000Y-147000000D02*
X129000000Y-148000000D01*
X128500000Y-129500000D02*
X128750000Y-129500000D01*
X140000000Y-93500000D02*
X140000000Y-96000000D01*
X128500000Y-146750000D02*
X128750000Y-146750000D01*
X128500000Y-139750000D02*
X128500000Y-146750000D01*
X140000000Y-96000000D02*
X140500000Y-96000000D01*
X128750000Y-147000000D02*
X129000000Y-147000000D01*
X128750000Y-98750000D02*
X128750000Y-99000000D01*
X129250000Y-183000000D02*
X129750000Y-183000000D01*
X129000000Y-148000000D02*
X129250000Y-148000000D01*
X128500000Y-99000000D02*
X128500000Y-129500000D01*
X128750000Y-146750000D02*
X128750000Y-147000000D01*
X129250000Y-92000000D02*
X129250000Y-98750000D01*
X128750000Y-99000000D02*
X128500000Y-99000000D01*
%TO.N,1V9_BULK*%
X128500000Y-147500000D02*
X128500000Y-148500000D01*
X128250000Y-147500000D02*
X128500000Y-147500000D01*
X126500000Y-139500000D02*
X126500000Y-147250000D01*
X126500000Y-147250000D02*
X128250000Y-147250000D01*
X128250000Y-147250000D02*
X128250000Y-147500000D01*
%TD*%
%TA.AperFunction,Conductor*%
%TO.N,SW*%
G36*
X153459191Y-39018907D02*
G01*
X153495155Y-39068407D01*
X153500000Y-39099000D01*
X153500000Y-57901000D01*
X153481093Y-57959191D01*
X153431593Y-57995155D01*
X153401000Y-58000000D01*
X125199500Y-58000000D01*
X125141309Y-57981093D01*
X125105345Y-57931593D01*
X125100500Y-57901000D01*
X125100500Y-56599499D01*
X125119407Y-56541308D01*
X125168907Y-56505344D01*
X125199500Y-56500499D01*
X127000367Y-56500499D01*
X127000372Y-56500499D01*
X127059983Y-56494091D01*
X127138723Y-56464723D01*
X127194829Y-56443797D01*
X127194829Y-56443796D01*
X127194831Y-56443796D01*
X127310046Y-56357546D01*
X127396296Y-56242331D01*
X127446591Y-56107483D01*
X127453000Y-56047873D01*
X127452999Y-54838142D01*
X129627000Y-54838142D01*
X129627000Y-55161857D01*
X129662776Y-55387740D01*
X129662778Y-55387745D01*
X129733452Y-55605258D01*
X129837283Y-55809038D01*
X129971714Y-55994066D01*
X130133434Y-56155786D01*
X130318462Y-56290217D01*
X130522242Y-56394048D01*
X130739755Y-56464722D01*
X130739756Y-56464722D01*
X130739759Y-56464723D01*
X130965643Y-56500500D01*
X130965646Y-56500500D01*
X131194357Y-56500500D01*
X131420240Y-56464723D01*
X131420241Y-56464722D01*
X131420245Y-56464722D01*
X131637758Y-56394048D01*
X131841538Y-56290217D01*
X132026566Y-56155786D01*
X132188286Y-55994066D01*
X132322717Y-55809038D01*
X132426548Y-55605258D01*
X132497222Y-55387745D01*
X132533000Y-55161854D01*
X132533000Y-54838146D01*
X132533000Y-54838142D01*
X132497223Y-54612259D01*
X132497222Y-54612255D01*
X132426548Y-54394742D01*
X132322717Y-54190962D01*
X132188286Y-54005934D01*
X132026566Y-53844214D01*
X131841538Y-53709783D01*
X131841537Y-53709782D01*
X131841535Y-53709781D01*
X131637758Y-53605952D01*
X131420240Y-53535276D01*
X131194357Y-53499500D01*
X131194354Y-53499500D01*
X130965646Y-53499500D01*
X130965643Y-53499500D01*
X130739759Y-53535276D01*
X130522241Y-53605952D01*
X130318464Y-53709781D01*
X130133435Y-53844213D01*
X129971713Y-54005935D01*
X129837281Y-54190964D01*
X129733452Y-54394741D01*
X129662776Y-54612259D01*
X129627000Y-54838142D01*
X127452999Y-54838142D01*
X127452999Y-53952128D01*
X127446591Y-53892517D01*
X127428575Y-53844213D01*
X127396297Y-53757670D01*
X127310049Y-53642458D01*
X127310048Y-53642457D01*
X127310046Y-53642454D01*
X127261286Y-53605952D01*
X127194829Y-53556202D01*
X127059988Y-53505910D01*
X127059983Y-53505909D01*
X127059981Y-53505908D01*
X127059977Y-53505908D01*
X127028749Y-53502550D01*
X127000373Y-53499500D01*
X127000370Y-53499500D01*
X125699500Y-53499500D01*
X125641309Y-53480593D01*
X125605345Y-53431093D01*
X125600500Y-53400500D01*
X125600500Y-52671155D01*
X134199500Y-52671155D01*
X134199500Y-52828844D01*
X134230263Y-52983496D01*
X134230263Y-52983498D01*
X134290603Y-53129174D01*
X134290609Y-53129185D01*
X134343312Y-53208059D01*
X134378211Y-53260289D01*
X134489711Y-53371789D01*
X134563275Y-53420943D01*
X134620814Y-53459390D01*
X134620825Y-53459396D01*
X134654888Y-53473505D01*
X134766503Y-53519737D01*
X134921158Y-53550500D01*
X134921159Y-53550500D01*
X135078841Y-53550500D01*
X135078842Y-53550500D01*
X135233497Y-53519737D01*
X135379179Y-53459394D01*
X135510289Y-53371789D01*
X135621789Y-53260289D01*
X135709394Y-53129179D01*
X135769737Y-52983497D01*
X135800500Y-52828842D01*
X135800500Y-52671158D01*
X135769737Y-52516503D01*
X135709394Y-52370821D01*
X135709393Y-52370819D01*
X135709390Y-52370814D01*
X135672651Y-52315832D01*
X135621789Y-52239711D01*
X135510289Y-52128211D01*
X135458059Y-52093312D01*
X135379185Y-52040609D01*
X135379174Y-52040603D01*
X135233497Y-51980263D01*
X135078844Y-51949500D01*
X135078842Y-51949500D01*
X134921158Y-51949500D01*
X134921155Y-51949500D01*
X134766503Y-51980263D01*
X134766501Y-51980263D01*
X134620825Y-52040603D01*
X134620814Y-52040609D01*
X134489711Y-52128211D01*
X134489707Y-52128214D01*
X134378214Y-52239707D01*
X134378211Y-52239711D01*
X134290609Y-52370814D01*
X134290603Y-52370825D01*
X134230263Y-52516501D01*
X134230263Y-52516503D01*
X134199500Y-52671155D01*
X125600500Y-52671155D01*
X125600500Y-50571652D01*
X125619117Y-50514352D01*
X125619087Y-50514332D01*
X125619159Y-50514224D01*
X125619407Y-50513461D01*
X125621343Y-50510955D01*
X125621786Y-50510291D01*
X125621789Y-50510289D01*
X125709394Y-50379179D01*
X125769737Y-50233497D01*
X125800500Y-50078842D01*
X125800500Y-49921158D01*
X125769737Y-49766503D01*
X125709394Y-49620821D01*
X125709393Y-49620819D01*
X125709390Y-49620814D01*
X125662406Y-49550499D01*
X125621789Y-49489711D01*
X125510289Y-49378211D01*
X125436722Y-49329055D01*
X125379185Y-49290609D01*
X125379174Y-49290603D01*
X125233497Y-49230263D01*
X125078844Y-49199500D01*
X125078842Y-49199500D01*
X124921158Y-49199500D01*
X124921155Y-49199500D01*
X124766503Y-49230263D01*
X124766501Y-49230263D01*
X124620825Y-49290603D01*
X124620814Y-49290609D01*
X124489711Y-49378211D01*
X124489707Y-49378214D01*
X124378214Y-49489707D01*
X124378211Y-49489711D01*
X124290609Y-49620814D01*
X124290603Y-49620825D01*
X124230263Y-49766501D01*
X124230263Y-49766503D01*
X124199500Y-49921155D01*
X124199500Y-50078844D01*
X124230263Y-50233496D01*
X124230263Y-50233498D01*
X124290603Y-50379174D01*
X124290609Y-50379185D01*
X124349029Y-50466615D01*
X124378211Y-50510289D01*
X124378212Y-50510290D01*
X124380913Y-50514332D01*
X124379536Y-50515251D01*
X124399329Y-50565832D01*
X124399500Y-50571652D01*
X124399500Y-52829279D01*
X124380593Y-52887470D01*
X124331093Y-52923434D01*
X124326125Y-52924905D01*
X124268218Y-52940422D01*
X124131284Y-53019480D01*
X124019480Y-53131284D01*
X123940423Y-53268216D01*
X123899500Y-53420944D01*
X123899500Y-57901000D01*
X123880593Y-57959191D01*
X123831093Y-57995155D01*
X123800500Y-58000000D01*
X122199500Y-58000000D01*
X122141309Y-57981093D01*
X122105345Y-57931593D01*
X122100500Y-57901000D01*
X122100500Y-52321652D01*
X122119117Y-52264352D01*
X122119087Y-52264332D01*
X122119159Y-52264224D01*
X122119407Y-52263461D01*
X122121343Y-52260955D01*
X122121786Y-52260291D01*
X122121789Y-52260289D01*
X122209394Y-52129179D01*
X122269737Y-51983497D01*
X122300500Y-51828842D01*
X122300500Y-51671158D01*
X122269737Y-51516503D01*
X122209394Y-51370821D01*
X122209393Y-51370819D01*
X122209390Y-51370814D01*
X122174017Y-51317876D01*
X122121789Y-51239711D01*
X122010289Y-51128211D01*
X121958059Y-51093312D01*
X121879185Y-51040609D01*
X121879174Y-51040603D01*
X121733497Y-50980263D01*
X121578844Y-50949500D01*
X121578842Y-50949500D01*
X121421158Y-50949500D01*
X121421155Y-50949500D01*
X121266503Y-50980263D01*
X121266501Y-50980263D01*
X121120825Y-51040603D01*
X121120814Y-51040609D01*
X120989711Y-51128211D01*
X120989707Y-51128214D01*
X120878214Y-51239707D01*
X120878211Y-51239711D01*
X120790609Y-51370814D01*
X120790603Y-51370825D01*
X120730263Y-51516501D01*
X120730263Y-51516503D01*
X120699500Y-51671155D01*
X120699500Y-51828844D01*
X120730263Y-51983496D01*
X120730263Y-51983498D01*
X120790603Y-52129174D01*
X120790609Y-52129185D01*
X120849029Y-52216615D01*
X120878211Y-52260289D01*
X120878212Y-52260290D01*
X120880913Y-52264332D01*
X120879536Y-52265251D01*
X120899329Y-52315832D01*
X120899500Y-52321652D01*
X120899500Y-57901000D01*
X120880593Y-57959191D01*
X120831093Y-57995155D01*
X120800500Y-58000000D01*
X119199500Y-58000000D01*
X119141309Y-57981093D01*
X119105345Y-57931593D01*
X119100500Y-57901000D01*
X119100500Y-53420944D01*
X119087329Y-53371789D01*
X119059577Y-53268216D01*
X118980520Y-53131284D01*
X118879494Y-53030258D01*
X118851719Y-52975744D01*
X118850500Y-52960257D01*
X118850500Y-50039743D01*
X118869407Y-49981552D01*
X118879490Y-49969745D01*
X118969741Y-49879494D01*
X119024256Y-49851719D01*
X119039743Y-49850500D01*
X119079055Y-49850500D01*
X119079057Y-49850500D01*
X119231784Y-49809577D01*
X119368716Y-49730520D01*
X119480520Y-49618716D01*
X119559577Y-49481784D01*
X119600500Y-49329057D01*
X119600500Y-48917929D01*
X119619407Y-48859738D01*
X119668907Y-48823774D01*
X119730093Y-48823774D01*
X119779593Y-48859738D01*
X119788134Y-48874990D01*
X119788316Y-48874894D01*
X119790609Y-48879185D01*
X119843312Y-48958059D01*
X119878211Y-49010289D01*
X119989711Y-49121789D01*
X120067876Y-49174017D01*
X120120814Y-49209390D01*
X120120825Y-49209396D01*
X120141762Y-49218068D01*
X120266503Y-49269737D01*
X120421158Y-49300500D01*
X120421159Y-49300500D01*
X120578841Y-49300500D01*
X120578842Y-49300500D01*
X120733497Y-49269737D01*
X120879179Y-49209394D01*
X121010289Y-49121789D01*
X121121789Y-49010289D01*
X121209394Y-48879179D01*
X121269737Y-48733497D01*
X121300500Y-48578842D01*
X121300500Y-48421158D01*
X121269737Y-48266503D01*
X121228308Y-48166484D01*
X121209396Y-48120825D01*
X121209390Y-48120814D01*
X121165411Y-48054996D01*
X121121789Y-47989711D01*
X121010289Y-47878211D01*
X120958059Y-47843312D01*
X120879185Y-47790609D01*
X120879174Y-47790603D01*
X120733497Y-47730263D01*
X120578844Y-47699500D01*
X120578842Y-47699500D01*
X120421158Y-47699500D01*
X120421155Y-47699500D01*
X120266503Y-47730263D01*
X120266501Y-47730263D01*
X120120825Y-47790603D01*
X120120814Y-47790609D01*
X119989711Y-47878211D01*
X119989707Y-47878214D01*
X119878214Y-47989707D01*
X119878211Y-47989711D01*
X119790609Y-48120814D01*
X119788316Y-48125106D01*
X119787115Y-48124464D01*
X119751223Y-48166484D01*
X119691727Y-48180764D01*
X119635201Y-48157347D01*
X119603234Y-48105176D01*
X119600500Y-48082070D01*
X119600500Y-47371155D01*
X121549500Y-47371155D01*
X121549500Y-47528844D01*
X121580263Y-47683496D01*
X121580263Y-47683498D01*
X121640603Y-47829174D01*
X121640609Y-47829185D01*
X121674015Y-47879179D01*
X121728211Y-47960289D01*
X121728214Y-47960292D01*
X121797918Y-48029996D01*
X121825695Y-48084513D01*
X121816124Y-48144945D01*
X121797918Y-48170004D01*
X121728214Y-48239707D01*
X121728211Y-48239711D01*
X121640609Y-48370814D01*
X121640603Y-48370825D01*
X121580263Y-48516501D01*
X121580263Y-48516503D01*
X121549500Y-48671155D01*
X121549500Y-48828844D01*
X121580263Y-48983496D01*
X121580263Y-48983498D01*
X121640603Y-49129174D01*
X121640609Y-49129185D01*
X121687593Y-49199500D01*
X121728211Y-49260289D01*
X121839711Y-49371789D01*
X121913275Y-49420943D01*
X121970814Y-49459390D01*
X121970825Y-49459396D01*
X122024638Y-49481685D01*
X122116503Y-49519737D01*
X122271158Y-49550500D01*
X122271159Y-49550500D01*
X122428841Y-49550500D01*
X122428842Y-49550500D01*
X122583497Y-49519737D01*
X122729179Y-49459394D01*
X122860289Y-49371789D01*
X122929996Y-49302082D01*
X122984512Y-49274304D01*
X123044944Y-49283875D01*
X123070004Y-49302082D01*
X123139702Y-49371781D01*
X123139706Y-49371784D01*
X123139711Y-49371789D01*
X123213275Y-49420943D01*
X123270814Y-49459390D01*
X123270825Y-49459396D01*
X123324638Y-49481685D01*
X123416503Y-49519737D01*
X123571158Y-49550500D01*
X123571159Y-49550500D01*
X123728841Y-49550500D01*
X123728842Y-49550500D01*
X123883497Y-49519737D01*
X124029179Y-49459394D01*
X124160289Y-49371789D01*
X124271789Y-49260289D01*
X124359394Y-49129179D01*
X124419737Y-48983497D01*
X124450500Y-48828842D01*
X124450500Y-48671158D01*
X124419737Y-48516503D01*
X124359394Y-48370821D01*
X124359393Y-48370819D01*
X124359390Y-48370814D01*
X124312406Y-48300499D01*
X124271789Y-48239711D01*
X124271784Y-48239706D01*
X124271781Y-48239702D01*
X124202082Y-48170004D01*
X124174304Y-48115488D01*
X124183875Y-48055056D01*
X124202082Y-48029996D01*
X124271781Y-47960297D01*
X124271789Y-47960289D01*
X124359394Y-47829179D01*
X124419737Y-47683497D01*
X124450500Y-47528842D01*
X124450500Y-47371158D01*
X124419737Y-47216503D01*
X124380106Y-47120825D01*
X124359396Y-47070825D01*
X124359390Y-47070814D01*
X124305195Y-46989707D01*
X124271789Y-46939711D01*
X124160289Y-46828211D01*
X124067934Y-46766501D01*
X124029185Y-46740609D01*
X124029174Y-46740603D01*
X123883497Y-46680263D01*
X123728844Y-46649500D01*
X123728842Y-46649500D01*
X123571158Y-46649500D01*
X123571155Y-46649500D01*
X123416503Y-46680263D01*
X123416501Y-46680263D01*
X123270825Y-46740603D01*
X123270814Y-46740609D01*
X123139711Y-46828211D01*
X123139707Y-46828214D01*
X123070004Y-46897918D01*
X123015487Y-46925695D01*
X122955055Y-46916124D01*
X122929996Y-46897918D01*
X122860292Y-46828214D01*
X122860289Y-46828211D01*
X122767934Y-46766501D01*
X122729185Y-46740609D01*
X122729174Y-46740603D01*
X122583497Y-46680263D01*
X122428844Y-46649500D01*
X122428842Y-46649500D01*
X122271158Y-46649500D01*
X122271155Y-46649500D01*
X122116503Y-46680263D01*
X122116501Y-46680263D01*
X121970825Y-46740603D01*
X121970814Y-46740609D01*
X121839711Y-46828211D01*
X121839707Y-46828214D01*
X121728214Y-46939707D01*
X121728211Y-46939711D01*
X121640609Y-47070814D01*
X121640603Y-47070825D01*
X121580263Y-47216501D01*
X121580263Y-47216503D01*
X121549500Y-47371155D01*
X119600500Y-47371155D01*
X119600500Y-46821652D01*
X119619117Y-46764352D01*
X119619087Y-46764332D01*
X119619159Y-46764224D01*
X119619407Y-46763461D01*
X119621343Y-46760955D01*
X119621786Y-46760291D01*
X119621789Y-46760289D01*
X119709394Y-46629179D01*
X119769737Y-46483497D01*
X119782138Y-46421155D01*
X126199500Y-46421155D01*
X126199500Y-46578844D01*
X126230263Y-46733496D01*
X126230263Y-46733498D01*
X126290605Y-46879178D01*
X126334585Y-46944998D01*
X126351194Y-47003886D01*
X126334585Y-47055002D01*
X126290605Y-47120821D01*
X126230263Y-47266501D01*
X126230263Y-47266503D01*
X126199500Y-47421155D01*
X126199500Y-47578844D01*
X126230263Y-47733496D01*
X126230263Y-47733498D01*
X126290603Y-47879174D01*
X126290609Y-47879185D01*
X126343312Y-47958059D01*
X126378211Y-48010289D01*
X126378214Y-48010292D01*
X126422918Y-48054996D01*
X126450695Y-48109513D01*
X126441124Y-48169945D01*
X126422918Y-48195004D01*
X126378214Y-48239707D01*
X126378211Y-48239711D01*
X126290609Y-48370814D01*
X126290603Y-48370825D01*
X126230263Y-48516501D01*
X126230263Y-48516503D01*
X126199500Y-48671155D01*
X126199500Y-48828844D01*
X126230263Y-48983496D01*
X126230263Y-48983498D01*
X126290603Y-49129174D01*
X126290609Y-49129185D01*
X126337593Y-49199500D01*
X126378211Y-49260289D01*
X126378214Y-49260292D01*
X126422918Y-49304996D01*
X126450695Y-49359513D01*
X126441124Y-49419945D01*
X126422918Y-49445004D01*
X126378214Y-49489707D01*
X126378211Y-49489711D01*
X126290609Y-49620814D01*
X126290603Y-49620825D01*
X126230263Y-49766501D01*
X126230263Y-49766503D01*
X126199500Y-49921155D01*
X126199500Y-50078844D01*
X126230263Y-50233496D01*
X126230263Y-50233498D01*
X126290603Y-50379174D01*
X126290609Y-50379185D01*
X126343312Y-50458059D01*
X126378211Y-50510289D01*
X126489711Y-50621789D01*
X126567876Y-50674017D01*
X126620814Y-50709390D01*
X126620825Y-50709396D01*
X126674638Y-50731685D01*
X126766503Y-50769737D01*
X126921158Y-50800500D01*
X126921159Y-50800500D01*
X127078841Y-50800500D01*
X127078842Y-50800500D01*
X127233497Y-50769737D01*
X127379179Y-50709394D01*
X127510289Y-50621789D01*
X127621789Y-50510289D01*
X127709394Y-50379179D01*
X127769737Y-50233497D01*
X127800500Y-50078842D01*
X127800500Y-49921158D01*
X127800499Y-49921155D01*
X130199500Y-49921155D01*
X130199500Y-50078844D01*
X130230263Y-50233496D01*
X130230263Y-50233498D01*
X130290603Y-50379174D01*
X130290609Y-50379185D01*
X130343312Y-50458059D01*
X130378211Y-50510289D01*
X130489711Y-50621789D01*
X130567876Y-50674017D01*
X130620814Y-50709390D01*
X130620825Y-50709396D01*
X130674638Y-50731685D01*
X130766503Y-50769737D01*
X130921158Y-50800500D01*
X130921159Y-50800500D01*
X131078841Y-50800500D01*
X131078842Y-50800500D01*
X131233497Y-50769737D01*
X131379179Y-50709394D01*
X131510289Y-50621789D01*
X131621789Y-50510289D01*
X131709394Y-50379179D01*
X131769737Y-50233497D01*
X131800500Y-50078842D01*
X131800500Y-49921158D01*
X131769737Y-49766503D01*
X131709394Y-49620821D01*
X131709393Y-49620819D01*
X131709390Y-49620814D01*
X131662406Y-49550499D01*
X131621789Y-49489711D01*
X131510289Y-49378211D01*
X131436722Y-49329055D01*
X131379185Y-49290609D01*
X131379174Y-49290603D01*
X131233497Y-49230263D01*
X131078844Y-49199500D01*
X131078842Y-49199500D01*
X130921158Y-49199500D01*
X130921155Y-49199500D01*
X130766503Y-49230263D01*
X130766501Y-49230263D01*
X130620825Y-49290603D01*
X130620814Y-49290609D01*
X130489711Y-49378211D01*
X130489707Y-49378214D01*
X130378214Y-49489707D01*
X130378211Y-49489711D01*
X130290609Y-49620814D01*
X130290603Y-49620825D01*
X130230263Y-49766501D01*
X130230263Y-49766503D01*
X130199500Y-49921155D01*
X127800499Y-49921155D01*
X127769737Y-49766503D01*
X127709394Y-49620821D01*
X127709393Y-49620819D01*
X127709390Y-49620814D01*
X127662406Y-49550499D01*
X127621789Y-49489711D01*
X127621784Y-49489706D01*
X127621781Y-49489702D01*
X127577082Y-49445004D01*
X127549304Y-49390488D01*
X127558875Y-49330056D01*
X127577082Y-49304996D01*
X127621781Y-49260297D01*
X127621789Y-49260289D01*
X127709394Y-49129179D01*
X127769737Y-48983497D01*
X127800500Y-48828842D01*
X127800500Y-48671158D01*
X127769737Y-48516503D01*
X127709394Y-48370821D01*
X127709393Y-48370819D01*
X127709390Y-48370814D01*
X127662406Y-48300499D01*
X127621789Y-48239711D01*
X127621784Y-48239706D01*
X127621781Y-48239702D01*
X127577082Y-48195004D01*
X127549304Y-48140488D01*
X127558875Y-48080056D01*
X127577082Y-48054996D01*
X127621781Y-48010297D01*
X127621789Y-48010289D01*
X127709394Y-47879179D01*
X127769737Y-47733497D01*
X127800500Y-47578842D01*
X127800500Y-47421158D01*
X127800499Y-47421155D01*
X130199500Y-47421155D01*
X130199500Y-47578844D01*
X130230263Y-47733496D01*
X130230263Y-47733498D01*
X130290603Y-47879174D01*
X130290609Y-47879185D01*
X130343312Y-47958059D01*
X130378211Y-48010289D01*
X130489711Y-48121789D01*
X130561870Y-48170004D01*
X130620814Y-48209390D01*
X130620825Y-48209396D01*
X130674638Y-48231685D01*
X130766503Y-48269737D01*
X130921158Y-48300500D01*
X130921159Y-48300500D01*
X131078841Y-48300500D01*
X131078842Y-48300500D01*
X131233497Y-48269737D01*
X131379179Y-48209394D01*
X131510289Y-48121789D01*
X131621789Y-48010289D01*
X131709394Y-47879179D01*
X131769737Y-47733497D01*
X131800500Y-47578842D01*
X131800500Y-47421158D01*
X131769737Y-47266503D01*
X131709394Y-47120821D01*
X131709393Y-47120819D01*
X131709390Y-47120814D01*
X131631260Y-47003886D01*
X131621789Y-46989711D01*
X131553233Y-46921155D01*
X134199500Y-46921155D01*
X134199500Y-47078844D01*
X134230263Y-47233496D01*
X134230263Y-47233498D01*
X134290603Y-47379174D01*
X134290609Y-47379185D01*
X134318656Y-47421159D01*
X134378211Y-47510289D01*
X134489711Y-47621789D01*
X134567876Y-47674017D01*
X134620814Y-47709390D01*
X134620825Y-47709396D01*
X134671204Y-47730263D01*
X134766503Y-47769737D01*
X134921158Y-47800500D01*
X134921159Y-47800500D01*
X135078841Y-47800500D01*
X135078842Y-47800500D01*
X135233497Y-47769737D01*
X135379179Y-47709394D01*
X135510289Y-47621789D01*
X135621789Y-47510289D01*
X135709394Y-47379179D01*
X135769737Y-47233497D01*
X135800500Y-47078842D01*
X135800500Y-46921158D01*
X135769737Y-46766503D01*
X135741984Y-46699500D01*
X135709396Y-46620825D01*
X135709390Y-46620814D01*
X135674017Y-46567876D01*
X135621789Y-46489711D01*
X135510289Y-46378211D01*
X135458059Y-46343312D01*
X135379185Y-46290609D01*
X135379174Y-46290603D01*
X135233497Y-46230263D01*
X135078844Y-46199500D01*
X135078842Y-46199500D01*
X134921158Y-46199500D01*
X134921155Y-46199500D01*
X134766503Y-46230263D01*
X134766501Y-46230263D01*
X134620825Y-46290603D01*
X134620814Y-46290609D01*
X134489711Y-46378211D01*
X134489707Y-46378214D01*
X134378214Y-46489707D01*
X134378211Y-46489711D01*
X134290609Y-46620814D01*
X134290603Y-46620825D01*
X134230263Y-46766501D01*
X134230263Y-46766503D01*
X134199500Y-46921155D01*
X131553233Y-46921155D01*
X131510289Y-46878211D01*
X131458059Y-46843312D01*
X131379185Y-46790609D01*
X131379174Y-46790603D01*
X131233497Y-46730263D01*
X131078844Y-46699500D01*
X131078842Y-46699500D01*
X130921158Y-46699500D01*
X130921155Y-46699500D01*
X130766503Y-46730263D01*
X130766501Y-46730263D01*
X130620825Y-46790603D01*
X130620814Y-46790609D01*
X130489711Y-46878211D01*
X130489707Y-46878214D01*
X130378214Y-46989707D01*
X130378211Y-46989711D01*
X130290609Y-47120814D01*
X130290603Y-47120825D01*
X130230263Y-47266501D01*
X130230263Y-47266503D01*
X130199500Y-47421155D01*
X127800499Y-47421155D01*
X127769737Y-47266503D01*
X127709394Y-47120821D01*
X127665413Y-47055000D01*
X127648805Y-46996114D01*
X127665413Y-46944999D01*
X127709394Y-46879179D01*
X127769737Y-46733497D01*
X127800500Y-46578842D01*
X127800500Y-46421158D01*
X127769737Y-46266503D01*
X127709394Y-46120821D01*
X127709393Y-46120819D01*
X127709390Y-46120814D01*
X127674017Y-46067876D01*
X127621789Y-45989711D01*
X127510289Y-45878211D01*
X127458059Y-45843312D01*
X127379185Y-45790609D01*
X127379174Y-45790603D01*
X127233497Y-45730263D01*
X127078844Y-45699500D01*
X127078842Y-45699500D01*
X126921158Y-45699500D01*
X126921155Y-45699500D01*
X126766503Y-45730263D01*
X126766501Y-45730263D01*
X126620825Y-45790603D01*
X126620814Y-45790609D01*
X126489711Y-45878211D01*
X126489707Y-45878214D01*
X126378214Y-45989707D01*
X126378211Y-45989711D01*
X126290609Y-46120814D01*
X126290603Y-46120825D01*
X126230263Y-46266501D01*
X126230263Y-46266503D01*
X126199500Y-46421155D01*
X119782138Y-46421155D01*
X119800500Y-46328842D01*
X119800500Y-46171158D01*
X119769737Y-46016503D01*
X119712856Y-45879179D01*
X119709396Y-45870825D01*
X119709390Y-45870814D01*
X119655794Y-45790603D01*
X119621789Y-45739711D01*
X119621784Y-45739706D01*
X119621781Y-45739702D01*
X119577082Y-45695004D01*
X119549304Y-45640488D01*
X119558875Y-45580056D01*
X119577082Y-45554996D01*
X119621781Y-45510297D01*
X119621789Y-45510289D01*
X119709394Y-45379179D01*
X119769737Y-45233497D01*
X119800500Y-45078842D01*
X119800500Y-44921158D01*
X119769737Y-44766503D01*
X119709394Y-44620821D01*
X119709393Y-44620819D01*
X119709390Y-44620814D01*
X119674017Y-44567876D01*
X119621789Y-44489711D01*
X119510289Y-44378211D01*
X119458059Y-44343312D01*
X119379185Y-44290609D01*
X119379174Y-44290603D01*
X119233497Y-44230263D01*
X119078844Y-44199500D01*
X119078842Y-44199500D01*
X118921158Y-44199500D01*
X118921155Y-44199500D01*
X118766503Y-44230263D01*
X118766501Y-44230263D01*
X118620825Y-44290603D01*
X118620814Y-44290609D01*
X118489711Y-44378211D01*
X118489707Y-44378214D01*
X118378214Y-44489707D01*
X118378211Y-44489711D01*
X118290609Y-44620814D01*
X118290603Y-44620825D01*
X118230263Y-44766501D01*
X118230263Y-44766503D01*
X118199500Y-44921155D01*
X118199500Y-45078844D01*
X118230263Y-45233496D01*
X118230263Y-45233498D01*
X118290603Y-45379174D01*
X118290609Y-45379185D01*
X118343312Y-45458059D01*
X118378211Y-45510289D01*
X118378214Y-45510292D01*
X118422918Y-45554996D01*
X118450695Y-45609513D01*
X118441124Y-45669945D01*
X118422918Y-45695004D01*
X118378214Y-45739707D01*
X118378211Y-45739711D01*
X118290609Y-45870814D01*
X118290603Y-45870825D01*
X118230263Y-46016501D01*
X118230263Y-46016503D01*
X118199500Y-46171155D01*
X118199500Y-46328844D01*
X118230263Y-46483496D01*
X118230263Y-46483498D01*
X118290603Y-46629174D01*
X118290609Y-46629185D01*
X118324739Y-46680263D01*
X118378211Y-46760289D01*
X118378212Y-46760290D01*
X118380913Y-46764332D01*
X118379536Y-46765251D01*
X118399329Y-46815832D01*
X118399500Y-46821652D01*
X118399500Y-48579279D01*
X118380593Y-48637470D01*
X118331093Y-48673434D01*
X118326125Y-48674905D01*
X118268218Y-48690422D01*
X118131284Y-48769480D01*
X118019479Y-48881285D01*
X117982159Y-48945924D01*
X117945924Y-48982159D01*
X117881285Y-49019479D01*
X117881284Y-49019480D01*
X117769480Y-49131284D01*
X117690423Y-49268216D01*
X117649768Y-49419945D01*
X117649500Y-49420944D01*
X117649500Y-53473505D01*
X117630593Y-53531696D01*
X117581093Y-53567660D01*
X117519908Y-53567660D01*
X117420242Y-53535277D01*
X117194357Y-53499500D01*
X117194354Y-53499500D01*
X116965646Y-53499500D01*
X116965643Y-53499500D01*
X116739759Y-53535276D01*
X116522241Y-53605952D01*
X116318464Y-53709781D01*
X116133435Y-53844213D01*
X115971713Y-54005935D01*
X115837281Y-54190964D01*
X115733452Y-54394741D01*
X115662776Y-54612259D01*
X115627000Y-54838142D01*
X115627000Y-55161857D01*
X115662776Y-55387740D01*
X115662778Y-55387745D01*
X115733452Y-55605258D01*
X115837283Y-55809038D01*
X115971714Y-55994066D01*
X116133434Y-56155786D01*
X116318462Y-56290217D01*
X116522242Y-56394048D01*
X116739755Y-56464722D01*
X116739756Y-56464722D01*
X116739759Y-56464723D01*
X116965643Y-56500500D01*
X116965646Y-56500500D01*
X117194357Y-56500500D01*
X117420240Y-56464723D01*
X117420241Y-56464722D01*
X117420245Y-56464722D01*
X117637758Y-56394048D01*
X117755556Y-56334026D01*
X117815987Y-56324456D01*
X117870503Y-56352233D01*
X117898281Y-56406750D01*
X117899500Y-56422237D01*
X117899500Y-57901000D01*
X117880593Y-57959191D01*
X117831093Y-57995155D01*
X117800500Y-58000000D01*
X113399000Y-58000000D01*
X113340809Y-57981093D01*
X113304845Y-57931593D01*
X113300000Y-57901000D01*
X113300000Y-56403917D01*
X113318907Y-56345726D01*
X113319747Y-56344588D01*
X113362694Y-56287217D01*
X113396296Y-56242331D01*
X113446591Y-56107483D01*
X113453000Y-56047873D01*
X113452999Y-53952128D01*
X113446591Y-53892517D01*
X113428575Y-53844213D01*
X113396297Y-53757670D01*
X113319747Y-53655412D01*
X113300010Y-53597497D01*
X113300000Y-53596083D01*
X113300000Y-51099000D01*
X113318907Y-51040809D01*
X113368407Y-51004845D01*
X113399000Y-51000000D01*
X116299999Y-51000000D01*
X116300000Y-51000000D01*
X116300000Y-40599000D01*
X116318907Y-40540809D01*
X116368407Y-40504845D01*
X116399000Y-40500000D01*
X124598817Y-40500000D01*
X124657008Y-40518907D01*
X124692972Y-40568407D01*
X124692972Y-40629593D01*
X124678070Y-40658329D01*
X124603702Y-40757670D01*
X124553410Y-40892511D01*
X124553408Y-40892522D01*
X124547000Y-40952129D01*
X124547000Y-43047866D01*
X124547001Y-43047870D01*
X124553408Y-43107480D01*
X124553409Y-43107485D01*
X124603702Y-43242329D01*
X124639551Y-43290217D01*
X124689954Y-43357546D01*
X124689957Y-43357548D01*
X124689958Y-43357549D01*
X124805170Y-43443797D01*
X124940011Y-43494089D01*
X124940012Y-43494089D01*
X124940017Y-43494091D01*
X124999627Y-43500500D01*
X127000372Y-43500499D01*
X127059983Y-43494091D01*
X127138723Y-43464723D01*
X127194829Y-43443797D01*
X127194829Y-43443796D01*
X127194831Y-43443796D01*
X127310046Y-43357546D01*
X127396296Y-43242331D01*
X127419526Y-43180045D01*
X127457575Y-43132133D01*
X127516522Y-43115734D01*
X127573850Y-43137115D01*
X127582278Y-43144630D01*
X127593434Y-43155786D01*
X127778462Y-43290217D01*
X127982242Y-43394048D01*
X128199755Y-43464722D01*
X128199756Y-43464722D01*
X128199759Y-43464723D01*
X128425643Y-43500500D01*
X128425646Y-43500500D01*
X128654357Y-43500500D01*
X128880240Y-43464723D01*
X128880241Y-43464722D01*
X128880245Y-43464722D01*
X129097758Y-43394048D01*
X129301538Y-43290217D01*
X129486566Y-43155786D01*
X129648286Y-42994066D01*
X129782717Y-42809038D01*
X129886548Y-42605258D01*
X129957222Y-42387745D01*
X129993000Y-42161854D01*
X129993000Y-41838146D01*
X129993000Y-41838142D01*
X129957223Y-41612259D01*
X129957222Y-41612255D01*
X129886548Y-41394742D01*
X129782717Y-41190962D01*
X129648286Y-41005934D01*
X129486566Y-40844214D01*
X129301538Y-40709783D01*
X129301537Y-40709782D01*
X129301535Y-40709781D01*
X129257236Y-40687210D01*
X129213971Y-40643945D01*
X129204400Y-40583513D01*
X129232177Y-40528996D01*
X129286694Y-40501219D01*
X129302181Y-40500000D01*
X132299999Y-40500000D01*
X132300000Y-40500000D01*
X132300000Y-39099000D01*
X132318907Y-39040809D01*
X132368407Y-39004845D01*
X132399000Y-39000000D01*
X153401000Y-39000000D01*
X153459191Y-39018907D01*
G37*
%TD.AperFunction*%
%TD*%
M02*
