%TF.GenerationSoftware,KiCad,Pcbnew,10.0.7*%
%TF.CreationDate,2026-10-09T11:26:15+08:00*%
%TF.ProjectId,AIPE_Smoke,41495045-5f53-46d6-9f6b-652e6b696361,rev?*%
%TF.SameCoordinates,Original*%
%TF.FileFunction,Copper,L2,Bot*%
%TF.FilePolarity,Positive*%
%FSLAX46Y46*%
G04 Gerber Fmt 4.6, Leading zero omitted, Abs format (unit mm)*
G04 Created by KiCad (PCBNEW 10.0.7) date 2026-10-09 11:26:15*
%MOMM*%
%LPD*%
G01*
G04 APERTURE LIST*
%TA.AperFunction,ComponentPad*%
%ADD10R,1.700000X1.700000*%
%TD*%
%TA.AperFunction,ComponentPad*%
%ADD11C,1.700000*%
%TD*%
%TA.AperFunction,ViaPad*%
%ADD12C,0.800000*%
%TD*%
%TA.AperFunction,Conductor*%
%ADD13C,0.300000*%
%TD*%
G04 APERTURE END LIST*
D10*
%TO.P,J1,1*%
%TO.N,/VIN*%
X25000000Y-25000000D03*
D11*
%TO.P,J1,2*%
%TO.N,/VOUT*%
X25000000Y-27540000D03*
%TO.P,J1,3*%
%TO.N,/GND*%
X25000000Y-30080000D03*
%TD*%
D12*
%TO.N,/GND*%
X39000000Y-33000000D03*
%TD*%
%TO.N,/GND*%
D13*
X39000000Y-33000000D02*
X29000000Y-33000000D01*
X29000000Y-33000000D02*
X25000000Y-30080000D01*
%TD*%
%TA.AperFunction,Conductor*%
%TO.N,/GND*%
G36*
X44442539Y-20520185D02*
G01*
X44488294Y-20572989D01*
X44499500Y-20624500D01*
X44499500Y-37375500D01*
X44479815Y-37442539D01*
X44427011Y-37488294D01*
X44375500Y-37499500D01*
X20624500Y-37499500D01*
X20557461Y-37479815D01*
X20511706Y-37427011D01*
X20500500Y-37375500D01*
X20500500Y-29989493D01*
X23850000Y-29989493D01*
X23850000Y-30170506D01*
X23878317Y-30349293D01*
X23934251Y-30521444D01*
X23934252Y-30521447D01*
X24016432Y-30682731D01*
X24087424Y-30780442D01*
X24087425Y-30780443D01*
X24556329Y-30311538D01*
X24599901Y-30387007D01*
X24692993Y-30480099D01*
X24768460Y-30523670D01*
X24299555Y-30992574D01*
X24397268Y-31063567D01*
X24558552Y-31145747D01*
X24558555Y-31145748D01*
X24730706Y-31201682D01*
X24909494Y-31230000D01*
X25090506Y-31230000D01*
X25269293Y-31201682D01*
X25441444Y-31145748D01*
X25441447Y-31145747D01*
X25602730Y-31063568D01*
X25700442Y-30992574D01*
X25700443Y-30992574D01*
X25231539Y-30523670D01*
X25307007Y-30480099D01*
X25400099Y-30387007D01*
X25443670Y-30311539D01*
X25912574Y-30780443D01*
X25912574Y-30780442D01*
X25983568Y-30682730D01*
X26065747Y-30521447D01*
X26065748Y-30521444D01*
X26121682Y-30349293D01*
X26150000Y-30170506D01*
X26150000Y-29989493D01*
X26121682Y-29810706D01*
X26065748Y-29638555D01*
X26065747Y-29638552D01*
X25983567Y-29477268D01*
X25912574Y-29379556D01*
X25912574Y-29379555D01*
X25443670Y-29848460D01*
X25400099Y-29772993D01*
X25307007Y-29679901D01*
X25231539Y-29636329D01*
X25700443Y-29167425D01*
X25700442Y-29167424D01*
X25602731Y-29096432D01*
X25441447Y-29014252D01*
X25441444Y-29014251D01*
X25269293Y-28958317D01*
X25090506Y-28930000D01*
X24909494Y-28930000D01*
X24730706Y-28958317D01*
X24558555Y-29014251D01*
X24558552Y-29014252D01*
X24397265Y-29096434D01*
X24299556Y-29167423D01*
X24299556Y-29167425D01*
X24768461Y-29636329D01*
X24692993Y-29679901D01*
X24599901Y-29772993D01*
X24556329Y-29848460D01*
X24087425Y-29379556D01*
X24087423Y-29379556D01*
X24016434Y-29477265D01*
X23934252Y-29638552D01*
X23934251Y-29638555D01*
X23878317Y-29810706D01*
X23850000Y-29989493D01*
X20500500Y-29989493D01*
X20500500Y-27453389D01*
X23899500Y-27453389D01*
X23899500Y-27626611D01*
X23926598Y-27797701D01*
X23980127Y-27962445D01*
X24058768Y-28116788D01*
X24160586Y-28256928D01*
X24283072Y-28379414D01*
X24423212Y-28481232D01*
X24577555Y-28559873D01*
X24742299Y-28613402D01*
X24913389Y-28640500D01*
X24913390Y-28640500D01*
X25086610Y-28640500D01*
X25086611Y-28640500D01*
X25257701Y-28613402D01*
X25422445Y-28559873D01*
X25576788Y-28481232D01*
X25716928Y-28379414D01*
X25839414Y-28256928D01*
X25941232Y-28116788D01*
X26019873Y-27962445D01*
X26073402Y-27797701D01*
X26100500Y-27626611D01*
X26100500Y-27453389D01*
X26073402Y-27282299D01*
X26019873Y-27117555D01*
X25941232Y-26963212D01*
X25839414Y-26823072D01*
X25716928Y-26700586D01*
X25576788Y-26598768D01*
X25422445Y-26520127D01*
X25257701Y-26466598D01*
X25257699Y-26466597D01*
X25257698Y-26466597D01*
X25126271Y-26445781D01*
X25086611Y-26439500D01*
X24913389Y-26439500D01*
X24873728Y-26445781D01*
X24742302Y-26466597D01*
X24577552Y-26520128D01*
X24423211Y-26598768D01*
X24343256Y-26656859D01*
X24283072Y-26700586D01*
X24283070Y-26700588D01*
X24283069Y-26700588D01*
X24160588Y-26823069D01*
X24160588Y-26823070D01*
X24160586Y-26823072D01*
X24116859Y-26883256D01*
X24058768Y-26963211D01*
X23980128Y-27117552D01*
X23926597Y-27282302D01*
X23899500Y-27453389D01*
X20500500Y-27453389D01*
X20500500Y-24125321D01*
X23899500Y-24125321D01*
X23899500Y-25874678D01*
X23914032Y-25947735D01*
X23914033Y-25947739D01*
X23914034Y-25947740D01*
X23969399Y-26030601D01*
X24052260Y-26085966D01*
X24052264Y-26085967D01*
X24125321Y-26100499D01*
X24125324Y-26100500D01*
X24125326Y-26100500D01*
X25874676Y-26100500D01*
X25874677Y-26100499D01*
X25947740Y-26085966D01*
X26030601Y-26030601D01*
X26085966Y-25947740D01*
X26100500Y-25874674D01*
X26100500Y-24125326D01*
X26100500Y-24125323D01*
X26100499Y-24125321D01*
X26085967Y-24052264D01*
X26085966Y-24052260D01*
X26030601Y-23969399D01*
X25947740Y-23914034D01*
X25947739Y-23914033D01*
X25947735Y-23914032D01*
X25874677Y-23899500D01*
X25874674Y-23899500D01*
X24125326Y-23899500D01*
X24125323Y-23899500D01*
X24052264Y-23914032D01*
X24052260Y-23914033D01*
X23969399Y-23969399D01*
X23914033Y-24052260D01*
X23914032Y-24052264D01*
X23899500Y-24125321D01*
X20500500Y-24125321D01*
X20500500Y-20624500D01*
X20520185Y-20557461D01*
X20572989Y-20511706D01*
X20624500Y-20500500D01*
X44375500Y-20500500D01*
X44442539Y-20520185D01*
G37*
%TD.AperFunction*%
%TD*%
M02*
